<svg width="48" height="48" viewBox="0 0 48 48" fill="none" xmlns="http://www.w3.org/2000/svg">
<path d="M0 36.8C0 28.2667 0 11.0667 0 10.9333C0.133333 10.2667 0.133333 9.46667 0.266667 8.8C0.666667 6.4 1.73333 4.26667 3.73333 2.66667C4.66667 1.86667 5.6 1.33333 6.8 0.933333C7.86667 0.4 10.9333 0 11.2 0C19.7333 0 28.2667 0 36.6667 0C36.8 0 38 0.133333 38.6667 0.133333C40 0.266667 41.2 0.666667 42.2667 1.2C43.4667 1.86667 44.4 2.53333 45.3333 3.6C46.6667 5.2 47.4667 6.93333 47.7333 8.93333C47.8667 9.46667 48 10 48 10.4C48 19.4667 48 38 47.8667 38.2667C47.7333 39.3333 47.4667 40.4 47.0667 41.4667C46.4 42.9333 45.4667 44.2667 44.2667 45.3333C43.3333 46.1333 42.4 46.6667 41.2 47.0667C40 47.4667 38.8 47.7333 37.6 47.8667C37.3333 47.8667 36.9333 47.8667 36.6667 48C28.1333 48 19.7333 48 11.2 48C10.9333 48 10.6667 48 10.2667 48C9.33333 47.8667 8.53333 47.7333 7.6 47.6C5.73333 47.0667 4 46 2.66667 44.4C1.86667 43.4667 1.33333 42.5333 0.933333 41.3333C0.4 40.1333 0 37.0667 0 36.8ZM13.8667 6.66667C12.2667 7.06667 10.8 7.73333 9.6 8.8C7.86667 10.2667 6.93333 12.2667 6.53333 14.4C6.26667 15.7333 6.26667 17.0667 6.26667 18.4C6.26667 20.4 6.26667 22.5333 6.26667 24.5333C6.26667 24.8 6.26667 25.0667 6.26667 25.4667C6.26667 27.4667 6.26667 29.4667 6.4 31.4667C6.4 32.6667 6.53333 33.8667 6.93333 34.9333C7.46667 36.6667 8.4 38.1333 9.73333 39.3333C11.0667 40.5333 12.5333 41.2 14.2667 41.4667C15.6 41.7333 29.7333 41.7333 31.4667 41.7333C32.4 41.7333 33.3333 41.6 34.2667 41.3333C35.8667 40.9333 37.3333 40.2667 38.5333 39.2C40.2667 37.7333 41.2 35.7333 41.6 33.6C41.8667 32.2667 41.8667 30.9333 41.8667 29.6C41.8667 27.6 41.8667 25.6 41.8667 23.6C41.8667 23.2 41.8667 22.8 41.8667 22.4C41.8667 20.4 41.8667 18.5333 41.7333 16.5333C41.7333 15.6 41.6 14.6667 41.3333 13.7333C40.9333 12.1333 40.2667 10.6667 39.2 9.46667C37.7333 7.73333 35.8667 6.8 33.6 6.4C31.4667 6.13333 15.2 6.4 13.8667 6.66667Z" fill="#3E6E97"/>
<path d="M28.9333 9.33331C30.2667 9.33331 31.7333 9.33331 33.0667 9.59998C34.4 9.86665 35.6 10.4 36.6667 11.3333C37.6 12.2666 38.1333 13.4666 38.4 14.9333C38.5333 15.8666 38.6667 16.9333 38.6667 17.8666C38.6667 21.7333 38.6667 25.4666 38.6667 29.3333C38.6667 30.6666 38.6667 32.1333 38.2667 33.4666C38 34.6666 37.4667 35.8666 36.5333 36.6666C35.6 37.6 34.4 38.1333 33.0667 38.2666C32 38.5333 31.0667 38.6666 30 38.6666C26.1333 38.6666 22.4 38.6666 18.5333 38.6666C17.0667 38.6666 15.4667 38.6666 14.1333 38.2666C13.0667 38 12.1333 37.4666 11.3333 36.6666C10.5333 35.8666 9.99999 34.8 9.73332 33.6C9.59999 32.8 9.46665 32 9.46665 31.2C9.19999 26.9333 9.33332 22.6666 9.33332 18.5333C9.33332 17.3333 9.33332 16.1333 9.59999 14.9333C9.86665 13.6 10.4 12.4 11.3333 11.3333C13.4667 9.19998 16.6667 9.46665 19.4667 9.33331C21.8667 9.33331 24.1333 9.33331 26.4 9.33331C27.3333 9.33331 28.1333 9.33331 28.9333 9.33331ZM14.8 24C14.8 29.2 19.2 33.4666 24.5333 33.0666C29.0667 32.8 33.3333 28.8 33.0667 23.3333C32.8 18.8 28.8 14.5333 23.3333 14.9333C18.8 15.2 14.9333 19.0666 14.8 24ZM31.3333 14.6666C31.3333 15.7333 32.2667 16.6666 33.4667 16.6666C34.6667 16.6666 35.6 15.6 35.4667 14.5333C35.4667 13.3333 34.4 12.4 33.2 12.5333C32.2667 12.5333 31.3333 13.4666 31.3333 14.6666Z" fill="#3E6E97"/>
<path d="M30 24C30.1333 27.2 27.3333 30 24 30C20.8 30 18.1333 27.3333 18.1333 24C18.1333 20.8 20.9333 18 24.1333 18.1333C27.2 18.1333 30 20.8 30 24Z" fill="#3E6E97"/>
</svg>
