<svg width="31" height="45" viewBox="0 0 31 45" fill="none" xmlns="http://www.w3.org/2000/svg">
<path d="M15.5 44.2C14.9 44.2 14.2 43.9 13.8 43.3L13.7 43C9.6 37.1 0 22.4 0 15.5C0 7 7 0 15.5 0C24 0 31 7 31 15.5C31 23.5 18.2 41.6 17.2 43.1C16.9 43.7 16.1 44.2 15.5 44.2ZM15.5 2C8.1 2 2 8.1 2 15.5C2 19.9 7 29.8 15.3 41.9L15.5 42.1L15.6 42C16.7 40.6 29 22.6 29 15.5C29 8.1 23 2 15.5 2ZM15.5 22.2C11.4 22.2 8 18.8 8 14.7C8 10.6 11.4 7.2 15.5 7.2C19.6 7.2 23 10.6 23 14.7C23 18.8 19.6 22.2 15.5 22.2ZM15.5 9.2C12.5 9.2 10 11.7 10 14.7C10 17.7 12.5 20.2 15.5 20.2C18.5 20.2 21 17.7 21 14.7C21 11.7 18.5 9.2 15.5 9.2Z" fill="#E37C1D"/>
</svg>
