<svg width="37" height="35" viewBox="0 0 37 35" fill="none" xmlns="http://www.w3.org/2000/svg">
<path d="M28.6771 34.0638C28.4771 34.0638 28.3771 34.0638 28.2771 34.0638C28.1771 34.0638 28.0771 34.0638 27.9771 33.9638C27.4771 33.8638 26.8771 33.7638 26.2771 33.5638C20.3771 31.2638 15.1771 28.1638 10.9771 24.3638C6.67709 20.4638 3.17709 15.7638 0.777088 10.2638C-0.222912 8.16383 -0.222912 6.06383 0.577088 4.26383C1.47709 2.46383 3.17709 1.06383 5.57709 0.263826C6.67709 -0.0361741 7.67709 -0.136174 8.67709 0.263826C10.9771 0.963826 15.7771 6.96383 15.9771 9.16383C16.1771 11.3638 14.3771 12.5638 13.5771 13.0638C12.7771 13.5638 12.5771 13.9638 13.1771 15.1638C14.6771 18.0638 17.1771 20.3638 20.6771 21.7638C21.0771 21.9638 21.3771 21.9638 21.5771 21.9638C21.7771 21.9638 22.0771 21.8638 22.2771 21.4638C23.6771 19.4638 25.3771 18.9638 26.4771 18.9638C27.6771 18.9638 28.8771 19.3638 30.1771 20.1638L30.7771 20.5638C31.6771 21.1638 32.6771 21.7638 33.5771 22.4638C33.7771 22.5638 33.8771 22.6638 34.0771 22.8638C35.3771 23.7638 37.6771 25.3638 36.5771 28.3638C35.3771 31.4638 31.7771 34.0638 28.6771 34.0638ZM7.17709 1.96383C6.87709 1.96383 6.47709 2.06383 6.17709 2.16383C4.37709 2.76383 2.97709 3.76383 2.37709 5.16383C1.77709 6.36383 1.87709 7.86383 2.57709 9.46383C4.97709 14.6638 8.17709 19.1638 12.3771 22.9638C16.3771 26.5638 21.3771 29.5638 27.0771 31.7638C27.4771 31.9638 27.9771 32.0638 28.3771 32.0638C28.5771 32.0638 28.6771 32.0638 28.6771 32.1638C30.9771 32.0638 33.8771 29.9638 34.6771 27.7638C35.1771 26.2638 34.4771 25.6638 32.9771 24.5638C32.7771 24.4638 32.5771 24.2638 32.4771 24.1638C31.5771 23.5638 30.6771 22.9638 29.7771 22.3638L29.1771 21.9638C28.1771 21.3638 27.2771 20.9638 26.5771 21.0638C25.5771 21.0638 24.7771 21.6638 23.9771 22.6638C23.2771 23.7638 22.2771 23.9638 21.5771 23.9638C21.0771 23.9638 20.4771 23.8638 19.8771 23.5638C15.8771 21.9638 12.9771 19.3638 11.3771 15.9638C10.3771 13.9638 10.7771 12.4638 12.4771 11.2638C13.2771 10.7638 14.0771 10.1638 13.9771 9.16383C13.8771 7.66383 9.57709 2.36383 8.07709 1.96383C7.77709 1.96383 7.47709 1.96383 7.17709 1.96383Z" fill="#333333"/>
</svg>
