<svg width="570" height="326" viewBox="0 0 570 326" fill="none" xmlns="http://www.w3.org/2000/svg">
<path d="M342.8 121.381C335.7 159.981 328.5 198.681 321.3 237.781C307 235.181 293.1 232.581 278.5 229.881C279.9 219.081 281 208.781 282.5 198.481C288.6 155.981 295.3 113.481 300.8 70.8812C303.5 49.3812 314.9 34.6813 332.3 23.4813C338.9 19.1813 345.8 15.4812 352.6 11.4812C360.3 6.98125 368.5 4.88125 377.5 4.48125C401.8 3.38125 426.1 1.48125 450.4 0.08125C453.6 -0.11875 457.1 -0.01875 460 1.18125C474 7.18125 488.2 12.8813 501.5 19.9813C514 26.6813 522.3 37.4813 526.1 51.4813C537.5 93.4812 549.2 135.381 560.7 177.281C563.8 188.481 566.5 199.781 569.5 211.681C555.8 216.081 542.4 220.381 528.4 224.881C516.5 187.281 504.6 150.081 492.8 112.881C492.5 112.981 492.2 112.981 491.9 113.081C495.3 168.081 498.8 223.181 502.3 278.581C452.9 281.681 403.9 284.781 354.3 287.881C350.8 232.481 347.4 176.981 343.9 121.481C343.4 121.481 343.1 121.381 342.8 121.381ZM360.5 280.381C405.6 277.581 449.9 274.781 494.8 271.981C490.8 208.481 486.9 145.181 482.9 81.8812C485.5 81.3812 487.4 80.9812 489.8 80.4812C504.1 125.581 518.4 170.381 532.8 215.881C542.3 212.881 551.5 209.981 560.8 206.981C558.7 198.681 556.8 190.981 554.8 183.381C543.2 140.881 531.4 98.4812 520.1 55.9813C516.2 41.3812 507.6 31.0813 494.7 23.9813C488.1 20.3813 481.3 17.0812 474.4 13.9812C469 11.5812 463.3 9.88125 457.6 7.88125C450.6 28.9813 438.7 43.5813 415.9 46.1813C390.3 49.0813 374.4 36.1812 364.1 13.8812C349.7 20.3812 336.3 27.8812 324.6 38.0812C316 45.5812 310.5 54.5812 308.8 66.0812C302.9 106.581 296.8 147.081 290.9 187.581C289.1 199.581 287.8 211.581 286.2 224.181C296.2 225.981 305.7 227.781 315.5 229.581C324.2 182.681 332.7 136.381 341.3 89.7812C343.9 90.0813 346 90.2812 348.5 90.4812C352.6 153.881 356.6 216.981 360.5 280.381ZM449.7 7.58125C423.8 9.18125 398 10.7812 372.1 12.4812C377.1 29.4813 394.1 40.5813 412.7 39.3813C431.2 38.1813 446.8 24.9812 449.7 7.58125Z" fill="#333333"/>
<path d="M360.5 280.381C356.5 216.981 352.6 153.881 348.6 90.3812C346.1 90.0812 343.9 89.8812 341.4 89.6812C332.8 136.281 324.3 182.581 315.6 229.481C305.7 227.681 296.3 225.981 286.3 224.081C287.9 211.481 289.3 199.481 291 187.481C296.9 146.981 303.1 106.481 308.9 65.9813C310.6 54.4813 316.1 45.4813 324.7 37.9813C336.5 27.7812 349.8 20.2812 364.2 13.7812C374.5 35.9813 390.4 48.8812 416 46.0812C438.8 43.4813 450.8 28.8813 457.7 7.78125C463.4 9.88125 469.1 11.5812 474.5 13.8812C481.4 16.8812 488.2 20.1813 494.8 23.8813C507.7 30.9813 516.3 41.2812 520.2 55.8813C531.5 98.3813 543.3 140.781 554.9 183.281C557 190.881 558.8 198.581 560.9 206.881C551.6 209.881 542.4 212.781 532.9 215.781C518.5 170.281 504.2 125.481 489.9 80.3812C487.5 80.8812 485.6 81.2812 483 81.7812C487 145.081 490.9 208.381 494.9 271.881C449.9 274.781 405.6 277.581 360.5 280.381Z" fill="#9CE3FD"/>
<path d="M449.7 7.58124C446.8 24.9812 431.2 38.1812 412.7 39.3812C394.1 40.5812 377.1 29.4812 372.1 12.4812C398 10.8812 423.8 9.28124 449.7 7.58124Z" fill="#9CE3FD"/>
<path d="M312.8 98.4812C296.1 82.1812 279.4 65.7812 262.6 49.4812C260.7 47.6812 258.4 46.1812 256 45.1812C238 37.6812 219.8 30.5812 201.9 22.8812C197.5 20.9812 193.7 20.7812 189 21.9812C169.2 27.3812 149.5 26.7812 130.3 18.8812C128.5 18.1812 126 17.9812 124.1 18.4812C107.5 23.5812 91.2 29.2812 74.5 34.0812C64.8 36.8812 56.7 41.5812 49 48.0812C33 61.7812 16.5 74.7812 0.2 88.0812L0 93.0812C1.3 94.2812 2.7 95.4812 3.8 96.8812C13.3 108.981 22.8 120.981 32.1 133.281C35 137.081 37.4 137.581 41.2 134.781C45.7 131.481 50.4 128.681 55.8 125.081L55.5 131.781C53.5 182.381 51.4 232.881 49.4 283.481C49.1 290.881 49.4 291.281 56.6 291.581C119 294.081 181.4 296.681 243.8 299.181C250.9 299.481 251.4 298.981 251.7 291.781L258.1 134.181C263.1 137.981 267.3 140.881 271 144.181C274.8 147.581 277.5 147.481 281 143.481C291.5 131.581 302.4 120.081 313.2 108.381C317.3 103.681 317.2 102.881 312.8 98.4812ZM139.8 29.8812C143.1 30.7812 146.3 31.5812 149.5 32.1812C152.7 32.7812 155.8 33.0812 159.1 33.1812C165.9 33.3812 172.7 32.6812 179.4 31.6812C182.8 31.1812 186 30.5812 189.4 29.9812C189.8 29.8812 192.8 29.5812 192.9 29.0812C188.9 49.8812 174.1 63.8812 158.4 62.2812C142.8 60.6812 129.2 44.5812 129.1 27.0812C129.1 27.3812 138.8 29.5812 139.8 29.8812ZM275.6 138.581C270.4 134.581 265.5 130.681 260.3 126.981C258.3 125.581 255.8 124.881 253.5 123.881C252.7 126.381 251.3 128.981 251.2 131.481C249.3 175.381 247.6 219.281 245.8 263.181L244.7 291.581L56.3 283.981L62.8 123.181C62.9 121.881 63 120.481 62.9 119.181C62.7 114.881 60.3 113.581 56.6 115.881C50.3 119.881 44.1 124.081 37.4 128.481C27.7 115.981 18 103.681 8.2 91.0812C21.8 79.8812 35.4 69.4812 48.2 57.9812C59.2 48.0812 71.5 41.7812 85.6 38.1812C96.3 35.4812 106.6 31.6812 117.1 28.3812C118.3 27.9812 119.6 27.6812 121.1 27.3812C125.6 49.5812 134.9 68.7812 160.3 69.0812C184.2 69.3812 194.6 51.7812 200.4 30.3812C218.6 37.7812 236.3 44.9812 254.1 52.1812C255.4 52.6812 256.7 53.6812 257.8 54.6812C274.1 70.4812 290.3 86.3812 306.5 102.281C306.8 102.581 307 103.081 307.6 103.881C297 115.281 286.4 126.781 275.6 138.581Z" fill="#333333"/>
<path d="M192.9 28.9812C188.9 49.7812 174.1 63.7812 158.4 62.1812C142.8 60.5812 129.2 44.4812 129.1 26.9812C129.1 27.3812 138.9 29.5812 139.8 29.8812C143.1 30.7812 146.3 31.5812 149.5 32.1812C152.7 32.7812 155.8 33.0812 159.1 33.1812C165.9 33.3812 172.7 32.6812 179.4 31.6812C182.8 31.1812 186 30.5812 189.4 29.9812C189.8 29.8812 192.8 29.5812 192.9 28.9812Z" fill="white"/>
<path d="M200.4 30.2812C218.6 37.6812 236.3 44.8812 254.1 52.0812C255.4 52.5812 256.7 53.5812 257.8 54.5812C274.1 70.3812 290.3 86.2812 306.5 102.181C306.8 102.481 307 102.981 307.6 103.781C297.1 115.281 286.5 126.781 275.7 138.481C270.5 134.481 265.6 130.481 260.4 126.881C258.4 125.481 255.9 124.781 253.6 123.781C252.8 126.281 251.4 128.881 251.3 131.381C249.4 175.281 247.7 219.181 245.9 263.081C245.5 272.381 245.1 281.681 244.8 291.481C182 288.981 119.7 286.381 56.5 283.881C56.6 281.981 56.7 279.881 56.7 277.781C58.8 226.181 60.9 174.581 63 123.081C63.1 121.781 63.2 120.381 63.1 119.081C62.9 114.881 60.5 113.481 56.8 115.781C50.5 119.781 44.3 123.981 37.6 128.381C27.7 115.981 18 103.681 8.20001 91.0812C21.8 79.8812 35.4 69.4812 48.2 57.9812C59.2 48.0812 71.5 41.7812 85.7 38.1812C96.4 35.4812 106.7 31.6812 117.2 28.3812C118.4 27.9812 119.7 27.6812 121.2 27.3812C125.7 49.5812 135 68.7812 160.4 69.0812C184.2 69.2812 194.7 51.6812 200.4 30.2812Z" fill="white"/>
<path fill-rule="evenodd" clip-rule="evenodd" d="M128.2 168.281C129.7 169.581 131.7 170.081 133.6 169.681V169.581C131.7 169.781 129.8 169.581 128.2 168.281C128.2 168.281 128.2 168.181 128.2 168.281Z" fill="#1A1D1E"/>
<path fill-rule="evenodd" clip-rule="evenodd" d="M177.1 155.281C175.5 153.981 176.4 148.881 178.1 145.481C179.8 142.081 182.4 140.381 185.9 140.981C189.5 141.581 194.1 144.581 194.4 146.781C194.7 148.981 190.6 150.281 186.6 152.281C182.6 154.081 178.7 156.581 177.1 155.281Z" fill="#1B1918"/>
<path fill-rule="evenodd" clip-rule="evenodd" d="M158 143.781C158.5 143.481 157.5 140.581 157 138.981C156.4 137.081 155.8 135.881 155.6 135.181C155.2 134.181 154.8 132.981 154.6 124.881C154.5 120.381 154.5 117.381 155.9 116.281C157.4 115.081 158.5 117.381 160.3 117.981C162.1 118.681 162 119.181 163.6 120.281C173.7 127.081 190.7 129.881 202 125.281C204.1 124.381 208.3 121.581 208.5 121.181C209.4 119.081 212.3 119.181 212.1 119.881C211.5 121.681 213.7 125.681 213.3 127.581C212.1 133.381 211.1 139.981 208.3 145.181C208.3 145.181 208.6 145.581 208.6 145.681C208.7 145.881 214.2 154.981 210.8 167.281C208.8 174.481 204.7 180.881 200.3 186.881C191.8 198.481 180.4 207.981 169.3 217.181C163.7 221.781 154.7 230.381 154.7 230.381C154.7 230.381 138.3 215.181 133.7 210.581C122.6 199.881 112.1 188.581 102.9 176.281C98.5 170.381 94.6 165.181 93.7 157.781C92.9 151.181 94.2 144.281 97.3 138.381C98.5 136.081 99.9 134.381 100.4 133.681C100.7 133.281 104.5 128.581 109.8 125.681C115.8 122.381 124 120.681 131.5 122.781C143.7 126.281 154.3 138.981 156 141.681C156.1 142.181 157.6 144.081 158 143.781Z" fill="white"/>
<path fill-rule="evenodd" clip-rule="evenodd" d="M108.9 142.681C109.1 142.781 109.2 142.481 109.3 142.381C109.5 142.181 109.6 141.981 109.8 141.781C110.1 141.481 110.4 141.081 110.7 140.781C111.3 140.181 112.1 139.581 112.8 139.081C115.8 136.981 119.2 135.681 122.8 135.181C126.7 134.581 130.6 134.981 134.4 135.981C138 136.981 141.5 138.481 144.7 140.581C147.6 142.481 150.3 144.881 152.2 147.781C153.2 149.281 153.9 150.981 154.4 152.681C154.9 154.581 154.9 156.581 154.6 158.581C154.3 160.581 153.6 162.481 153.3 164.481C153.1 166.081 154.5 166.981 155.6 168.281C156.1 168.981 156 169.381 156.8 169.681C157.7 169.981 158.1 169.881 159.1 170.081C159.5 170.181 160.2 170.581 160.5 170.381C160.7 170.181 160.4 170.781 160.3 170.581C160.2 170.281 160 169.981 159.8 169.681C159.6 169.281 159.3 168.881 159 168.381C158.5 167.581 158.6 165.881 157.9 165.281C157.2 164.681 156.6 164.181 155.9 163.581C155.3 162.981 154.2 163.281 154.2 162.381C154.1 161.381 154.4 160.381 154.7 159.481C155.3 157.581 155.9 155.681 156.2 153.681C156.6 151.681 156.8 149.681 156.8 147.581C156.9 143.581 156.5 139.581 155.7 135.581C155 131.681 153.9 127.881 153.7 123.881C153.6 121.881 153.7 119.881 154.2 117.981C154.3 117.481 154.4 116.981 154.6 116.481C154.8 115.981 155 115.481 155.5 115.181C156 114.881 156.6 115.081 157.1 115.381C157.5 115.681 157.8 115.981 158.2 116.281C158.6 116.581 159 116.881 159.3 117.181C160.9 118.381 162.5 119.381 164.2 120.281C167.7 122.081 171.4 123.381 175.2 124.281C177.2 124.781 179.2 125.181 181.2 125.481C183.2 125.881 185.3 126.181 187.3 126.481C189.3 126.781 191.3 126.881 193.4 126.881C195.4 126.781 197.3 126.581 199.2 125.981C201 125.481 202.7 124.681 204.3 123.681C205.1 123.181 205.8 122.681 206.5 122.081C207.2 121.481 207.9 120.781 208.5 120.181C209.1 119.581 209.8 118.981 210.7 118.881C211.6 118.781 212.1 119.481 212.4 120.181C212.7 120.981 212.8 121.881 212.8 122.781C212.9 123.781 212.9 124.781 212.9 125.781C212.9 129.881 212.5 133.881 211.5 137.881C211 139.781 210.4 141.681 209.8 143.581C209.5 144.381 209.2 145.281 208.6 145.881C208.4 146.181 208.1 146.381 207.7 146.581C207.5 146.681 207.1 146.881 206.8 146.681C206.5 146.481 206.7 145.981 206.8 145.681C207 145.281 207.2 144.781 207.3 144.381C207.6 143.481 207.9 142.481 208.1 141.581C208.6 139.581 209 137.581 209.4 135.681C209.6 134.681 209.8 133.681 210 132.681C210.2 131.781 210.3 130.881 210.1 129.981C210 129.581 209.8 129.281 209.5 128.981C209.2 128.781 208.8 128.681 208.5 128.781C207.7 128.881 206.9 129.281 206.1 129.681C205.3 130.181 204.4 130.681 203.7 131.181C203.3 131.481 202.9 131.781 202.5 132.081C202.2 132.281 201.9 132.581 201.7 132.981C201.5 133.281 201.4 133.681 201.5 134.081C201.6 134.481 201.9 134.781 202.2 134.981C202.5 135.281 202.7 135.681 202.8 136.081C202.9 136.481 202.9 136.981 202.9 137.481C202.9 138.281 202.8 139.281 203.3 139.981C203.4 140.181 203.6 140.181 203.8 140.281C204 140.381 204.2 140.381 204.3 140.481C204.5 140.781 204.3 141.281 204.2 141.581C204 142.481 204.4 143.481 204.8 144.281C205.3 145.081 205.8 145.881 206.4 146.581C207 147.281 207.6 147.981 208.2 148.781C208.7 149.481 209.2 150.281 209.7 151.081C210.6 152.681 211.2 154.481 211.6 156.381C212.4 160.281 212.1 164.281 211.1 168.081C210.1 171.781 208.5 175.381 206.6 178.781C204.7 182.181 202.4 185.381 200 188.481C197.6 191.581 194.9 194.481 192.2 197.281C189.4 200.081 186.4 202.881 183.4 205.481C180.3 208.181 177.2 210.781 174 213.381C170.8 215.981 167.7 218.581 164.5 221.181C162.9 222.481 161.4 223.781 159.8 225.181C158.3 226.481 156.9 227.881 155.3 229.081C155 229.381 154.6 229.581 154.3 229.881C154.2 229.981 154 230.181 154 230.281C154.1 230.481 154.4 230.181 154.4 230.181C155.2 229.581 155.8 228.981 156.5 228.281C157.9 226.981 159.2 225.681 160.4 224.081C162.6 221.081 163.7 217.381 163.8 213.681C163.8 212.681 163.7 211.781 163.6 210.781C163.5 209.781 163.3 208.781 163.2 207.881C163.2 207.681 163.1 207.181 162.7 207.281C162.5 207.381 162.4 207.481 162.3 207.681C162.1 207.881 162 207.981 161.8 208.081C161 208.581 160 208.381 159.3 208.881C159 209.081 158.8 209.381 158.5 209.681C158.2 209.881 158 209.781 157.9 209.481C157.8 209.181 157.9 208.781 157.9 208.481C157.9 207.981 157.9 207.481 157.9 206.981C157.9 206.481 157.8 205.981 157.8 205.481C157.8 205.181 158 204.381 157.5 204.381C157.3 204.381 157.1 204.481 157 204.581C156.8 204.681 156.7 204.881 156.5 204.981C156.1 205.281 155.8 205.481 155.4 205.781C155.2 205.981 154.9 206.181 154.5 206.281C154.1 206.281 153.9 205.881 153.8 205.581C153.4 204.781 152.7 203.981 152.1 203.381C151.8 203.081 151.6 202.781 151.3 202.481C151.1 202.281 150.9 201.981 150.6 202.081C150.2 202.081 150.3 202.681 150.3 202.981C150.3 203.481 150.4 203.981 150.4 204.481C150.4 205.481 150.4 206.481 150.5 207.481C150.5 207.881 150.6 208.381 150.6 208.781C150.6 208.881 150.6 209.081 150.5 209.081C150.4 209.181 150.2 208.881 150.2 208.781C150.1 208.581 150.1 208.381 150 208.181C149.9 207.981 149.8 207.781 149.6 207.581C149.3 207.281 149 206.881 148.7 206.681C148.4 206.381 148 206.081 147.6 206.081C147.2 205.981 147 206.481 147 206.781C147 207.081 147.1 207.381 147 207.781C146.9 208.281 146.4 207.881 146.2 207.681C145.8 207.381 145.4 207.081 145 206.781C144.6 206.481 144.2 206.281 143.8 205.981C143 205.481 142.2 204.981 141.5 204.381C141.3 204.181 140.9 203.881 140.6 204.281C140.4 204.581 140.4 205.081 140.4 205.481C140.4 205.981 140.4 206.381 140.6 206.881C140.7 207.381 140.9 207.781 141.1 208.181C141.2 208.281 141.3 208.481 141.2 208.681C141.1 208.881 140.9 208.881 140.7 208.881C140.5 208.881 140.3 208.881 140.1 208.881C139.9 208.881 139.6 208.981 139.4 208.981C138.5 209.181 137.5 209.581 136.6 209.881C136.1 210.081 135.7 210.281 135.2 210.381C134.8 210.481 134.4 210.581 134 210.781C133.7 210.881 133.3 211.081 133.3 211.481C133.4 211.781 133.8 211.981 134 212.181C134.8 212.781 135.5 213.481 136.2 214.181C137.6 215.581 139.1 217.081 140.5 218.481C143.4 221.281 146.3 224.081 149.3 226.781C150 227.381 150.7 228.081 151.5 228.781C152 229.181 152.5 229.681 153 229.981C153.1 230.081 153.5 230.181 153.4 229.881C153.4 229.781 153.2 229.681 153.1 229.581C152.9 229.481 152.7 229.281 152.6 229.181C151.8 228.581 151 227.981 150.2 227.281C148.6 225.981 147.1 224.581 145.6 223.281C144.1 221.881 142.6 220.581 141 219.181C138 216.481 134.9 213.681 132 210.881C129 208.081 126.1 205.281 123.2 202.381C120.3 199.481 117.5 196.581 114.6 193.681C111.8 190.681 109 187.781 106.3 184.681C102.4 180.281 98.9 175.481 96.2 170.181C95.5 168.681 94.8 167.281 94.3 165.681C93 162.081 92.1 158.281 91.9 154.481C91.7 150.581 92.1 146.581 93.3 142.781C94.4 139.281 96.2 136.081 98.5 133.181C100.8 130.381 103.5 128.081 106.6 126.181C109.8 124.281 113.3 123.081 116.9 122.581C120.8 121.981 124.9 122.281 128.7 123.281C129.7 123.481 130.7 123.781 131.6 124.181C132.3 124.381 133 124.581 133.6 124.981C133.7 124.981 134.1 125.181 133.8 125.281C133.7 125.281 133.6 125.281 133.5 125.181C133.4 125.181 133.3 125.081 133.2 125.081C132.3 124.781 131.4 124.381 130.4 124.181C126.6 123.081 122.5 122.781 118.6 123.281C115 123.781 111.4 124.881 108.3 126.781C105.3 128.581 102.6 130.881 100.5 133.781C99.4 135.281 98.5 136.981 97.7 138.681C97.3 139.581 96.9 140.481 96.6 141.381C96.6 141.581 96.4 141.781 96.5 141.981C96.5 142.081 96.6 142.081 96.7 141.981C96.8 141.881 96.9 141.581 97 141.481C97.4 140.581 97.7 139.681 98.2 138.881C98.7 138.081 99.2 137.281 99.8 136.481C100.9 134.981 102.2 133.581 103.6 132.281C106.3 129.881 109.4 127.881 112.8 126.481C116.3 124.981 120.2 124.181 124 124.181C126 124.181 128 124.481 129.9 124.681C130.1 124.681 130.3 124.781 130.5 124.781C130.6 124.781 131 124.881 131 125.081C131 125.281 130.7 125.181 130.6 125.181C130.3 125.181 130.1 125.081 129.8 125.081C128.8 124.981 127.8 124.881 126.8 124.881C125.8 124.881 124.8 125.081 123.8 125.181C122.8 125.281 121.8 125.381 120.9 125.581C120.8 125.581 120.2 125.781 120.4 125.881C120.5 125.981 120.8 125.881 121 125.881C121.9 125.881 122.9 125.681 123.8 125.581C125.8 125.481 127.8 125.781 129.7 126.081C131.7 126.381 133.6 126.881 135.5 127.481C139.1 128.681 142.4 130.381 145.5 132.581C147.1 133.681 148.5 134.881 149.9 136.281C151.3 137.681 152.6 139.181 153.7 140.781C154.3 141.581 154.9 142.281 155.4 143.081C155.5 143.181 155.7 143.481 155.6 143.581C155.5 143.681 155.3 143.381 155.3 143.381C155 142.981 154.7 142.681 154.5 142.281C153.4 140.781 152.1 139.381 150.7 138.081C147.9 135.581 144.8 133.481 141.5 131.981C140.6 131.581 139.7 131.181 138.8 130.881C138.4 130.681 137.9 130.481 137.5 130.381C137.4 130.381 137.3 130.281 137.2 130.281C137 130.281 137.1 130.481 137.2 130.581C137.3 130.681 137.4 130.781 137.5 130.781C137.7 130.881 137.9 131.081 138.1 131.181C138.5 131.481 138.9 131.781 139.2 132.081C140 132.681 140.7 133.381 141.5 133.981C142.3 134.581 143.1 135.281 143.9 135.781C144.3 136.081 144.7 136.281 145.1 136.581C145.3 136.681 145.4 136.881 145.6 136.981C145.6 137.081 145.7 137.081 145.7 137.181C145.7 137.281 145.5 137.281 145.4 137.181C145.3 137.081 145.1 136.981 145 136.881C144.8 136.781 144.6 136.581 144.3 136.481C143.5 135.981 142.7 135.481 141.8 135.081C138.1 133.481 134.2 132.581 130.2 132.281C129.2 132.181 128.2 132.181 127.2 132.181C126.2 132.181 125.2 132.281 124.2 132.281C123.7 132.281 123.3 132.281 122.8 132.381C122.7 132.381 122 132.481 122.1 132.681C122.1 132.881 122.4 132.781 122.5 132.781C122.7 132.781 122.9 132.781 123.2 132.781C123.7 132.781 124.2 132.681 124.8 132.681C125.8 132.681 126.8 132.781 127.7 132.881C128.7 132.981 129.7 133.181 130.6 133.381C132.5 133.781 134.4 134.281 136.2 134.981C137.1 135.281 138 135.681 138.9 136.081C139.8 136.481 140.7 136.981 141.6 137.481C142.4 137.881 143.2 138.181 143.9 138.681C144 138.781 144.1 138.881 144.1 138.981C144.1 139.081 143.9 139.081 143.9 138.981C143.7 138.881 143.4 138.781 143.2 138.681C141.5 137.781 139.8 136.981 138 136.381C136.1 135.681 134.2 135.081 132.3 134.581C128.5 133.681 124.6 133.481 120.7 134.181C117.3 134.881 114.1 136.281 111.5 138.581C110.8 139.181 110.2 139.781 109.6 140.481C109.3 140.881 109 141.181 108.7 141.581C109.3 141.781 108.7 142.481 108.9 142.681Z" fill="#FF7D00"/>
<path fill-rule="evenodd" clip-rule="evenodd" d="M153.7 179.081C151.7 177.481 149.5 176.081 147.2 174.781C141.8 171.881 136 169.981 130.1 168.181C126.7 167.081 123.2 166.081 120.3 163.981C117.4 161.881 115.1 158.581 115.3 155.081C115.4 151.481 118.7 148.081 122.2 148.581C118.9 147.581 115.3 150.481 114.7 153.981C113.8 159.281 118.1 163.481 122.3 165.881C126.7 168.481 131.7 169.981 136.6 171.681C141.7 173.481 146.8 175.581 151 179.081C159.1 185.881 163.4 196.281 164.4 206.581C164.5 207.281 164.5 208.081 164.6 208.781C164.6 209.081 164.6 209.481 164.6 209.781C164.6 209.581 165.3 208.781 165.4 208.381C165.6 207.781 165.5 207.081 165.6 206.481C166.2 201.581 170.6 199.081 174.2 196.481C178.7 193.381 182.6 189.281 185.7 184.781C185.8 184.681 185.8 184.581 185.9 184.481C189.3 179.581 191.8 173.581 190.7 167.781C194.7 165.881 199.4 165.481 203.6 166.781C203.6 163.081 203.4 158.881 200.6 156.581C197.6 154.181 193.2 154.981 189.8 156.681C181.6 160.781 175.8 168.981 167 171.681C173.6 171.881 179.5 166.881 186.2 166.881C179.4 170.481 172.2 172.381 164.6 173.681C161.8 174.181 162.1 176.781 161.7 179.081C161.6 181.581 160.9 184.081 160.5 186.581C158.8 183.781 156.4 181.281 153.7 179.081ZM185.2 151.581C185.2 151.481 185.1 151.481 185 151.481C183.9 150.881 182.9 150.481 181.6 150.281C180.5 150.181 179.3 150.181 178.3 150.581C177.9 150.781 177.4 150.981 177.1 151.281C176.7 151.581 176.4 152.081 176 152.481C175.7 152.981 175.4 153.381 175.1 153.881C174.8 154.381 174.5 154.881 174.2 155.381C173.8 155.881 173.5 156.481 173.2 157.081C173.2 157.181 173 157.381 173.1 157.481C173.5 157.981 184.8 151.781 184.9 151.781C185 151.681 185.1 151.681 185.2 151.581ZM159 141.381C158.6 140.981 158.2 141.181 158.1 141.681C158.1 142.181 158.6 149.681 158.8 149.681C159.3 149.081 160 148.281 160.5 147.181C160.9 146.481 161.7 144.681 161.7 144.081C161.7 143.881 161.6 143.681 161.6 143.581C161.5 143.481 161.4 143.281 161.2 143.081L159 141.381ZM181.6 152.981L181.5 152.881C180.9 152.581 180.3 152.281 179.6 152.181C179 152.081 178.3 152.181 177.8 152.381C177.6 152.481 177.3 152.581 177.1 152.781C176.9 152.981 176.7 153.181 176.5 153.481C176.3 153.781 176.2 153.981 176 154.281C175.8 154.581 175.6 154.781 175.5 155.081C175.3 155.381 175.1 155.681 174.9 155.981C174.9 156.081 174.8 156.181 174.9 156.181C175.1 156.481 181.4 152.981 181.5 152.981H181.6Z" fill="white"/>
<path fill-rule="evenodd" clip-rule="evenodd" d="M159.3 143.181C159 142.981 158.8 143.081 158.8 143.381C158.8 143.681 159.1 147.881 159.2 147.881C159.5 147.581 159.9 147.081 160.2 146.481C160.4 146.081 160.9 145.081 160.9 144.781C160.9 144.681 160.9 144.581 160.8 144.481C160.8 144.381 160.7 144.281 160.6 144.181L159.3 143.181ZM182 152.381L181.9 152.281C181.3 151.981 180.8 151.681 180.1 151.681C179.5 151.581 178.9 151.681 178.4 151.781C178.2 151.881 177.9 151.981 177.7 152.181C177.5 152.381 177.3 152.581 177.1 152.881C176.9 153.081 176.8 153.381 176.6 153.581C176.4 153.881 176.3 154.081 176.1 154.381C175.9 154.681 175.7 154.981 175.6 155.281C175.6 155.381 175.5 155.481 175.6 155.481C175.8 155.781 181.8 152.481 181.9 152.481C181.9 152.381 182 152.381 182 152.381Z" fill="#151B19"/>
<path fill-rule="evenodd" clip-rule="evenodd" d="M158.8 135.281C158.9 135.581 158.9 135.881 159 136.181C159.3 136.381 159.5 136.481 159.8 136.581C159.9 136.581 159.9 136.481 160 136.481C160.3 136.181 160.6 135.881 160.8 135.481C161.3 134.881 161.8 134.081 161.6 133.181C161.5 132.581 163.3 130.481 163.2 129.781C163.1 128.881 162.5 128.581 162.7 128.181C162.9 127.881 163.4 128.081 164 127.681C164.2 127.581 164.5 127.281 164.7 126.881C164.8 126.581 164.8 126.181 164.7 125.881C164.6 125.581 164.3 125.281 164.1 125.081C163.8 124.781 163.5 124.481 163.2 124.181C162.6 123.581 161.9 123.081 161.2 122.581C160.6 122.181 160 121.681 159.2 121.581C158.9 121.481 158.6 121.481 158.3 121.681C158 121.881 157.8 122.181 157.7 122.481C157.4 123.181 157.5 124.081 157.5 124.881C157.6 125.781 157.6 126.681 157.7 127.481C157.8 129.281 158 130.981 158.2 132.781C158.5 133.581 158.6 134.481 158.8 135.281Z" fill="white"/>
<path fill-rule="evenodd" clip-rule="evenodd" d="M162.5 168.781C162.2 168.381 156.3 162.981 155.9 162.681C155.7 162.581 155.5 162.381 155.3 162.281C155.2 162.281 155.1 162.181 155 162.181C154.9 162.181 154.8 162.081 154.7 162.181L154.6 162.281C154.6 162.381 154.5 162.381 154.5 162.381C154.4 162.481 154.4 162.581 154.3 162.681C154.2 162.881 154.1 163.081 153.9 163.381C153.7 163.781 153.5 164.281 153.4 164.681C153.2 165.581 153.3 166.581 153.7 167.381C154.1 168.381 154.9 169.281 155.9 169.781C156.3 170.081 156.8 170.281 157.2 170.381C157.7 170.581 160.6 170.981 160.9 170.981C161.2 170.981 161.4 170.981 161.7 170.981C162 170.981 162.2 170.981 162.5 170.981C162.7 170.981 163 170.981 163.2 170.881C163.4 170.781 163.5 170.681 163.6 170.481C163.7 170.281 163.6 169.981 163.5 169.781C163.2 169.481 162.9 169.181 162.5 168.781Z" fill="#1B201C"/>
<path fill-rule="evenodd" clip-rule="evenodd" d="M399.4 141.881C400.5 142.581 401.8 142.681 403 142.281C401.7 142.481 400.5 142.481 399.4 141.881C399.4 141.781 399.3 141.881 399.4 141.881Z" fill="#1A1D1E"/>
<path fill-rule="evenodd" clip-rule="evenodd" d="M429.4 128.881C428.3 128.181 428.3 124.881 429.1 122.481C429.9 120.181 431.3 118.781 433.7 118.881C436 118.981 439.3 120.381 439.7 121.781C440.1 123.181 437.6 124.381 435.3 125.981C432.8 127.681 430.5 129.581 429.4 128.881Z" fill="#1B1918"/>
<path fill-rule="evenodd" clip-rule="evenodd" d="M416.1 123.381C416.4 123.181 415.5 121.381 415 120.381C414.4 119.181 414 118.481 413.7 118.081C413.4 117.481 413 116.781 412.1 111.581C411.6 108.781 411.3 106.781 412.1 105.981C413 105.081 413.9 106.381 415.1 106.681C416.3 106.981 416.3 107.281 417.4 107.881C424.5 111.281 435.6 111.481 442.4 107.481C443.7 106.781 446.1 104.581 446.2 104.181C446.6 102.781 448.5 102.481 448.4 102.981C448.2 104.181 449.9 106.581 449.9 107.781C449.7 111.581 449.7 115.881 448.4 119.481C448.4 119.481 448.6 119.681 448.6 119.781C448.7 119.881 453.1 125.181 452 133.381C451.4 138.181 449.4 142.681 447.1 146.881C442.7 155.081 436.4 162.281 430.1 169.181C427 172.681 422 178.981 422 178.981C422 178.981 410.1 170.781 406.7 168.381C398.6 162.581 390.8 156.381 383.8 149.381C380.5 146.081 377.4 143.081 376.2 138.381C375.1 134.181 375.2 129.681 376.7 125.581C377.3 123.981 378 122.781 378.2 122.281C378.4 121.981 380.4 118.581 383.5 116.281C387 113.581 392.1 111.781 397.1 112.381C405.2 113.481 413.2 120.581 414.5 122.181C414.7 122.481 415.8 123.581 416.1 123.381Z" fill="white"/>
<path fill-rule="evenodd" clip-rule="evenodd" d="M384.6 127.281C384.7 127.281 384.8 127.081 384.8 127.081C384.9 126.981 385 126.781 385 126.681C385.1 126.481 385.3 126.181 385.5 125.981C385.9 125.481 386.3 125.081 386.7 124.681C388.4 123.081 390.5 121.881 392.7 121.181C395.1 120.481 397.7 120.281 400.2 120.581C402.6 120.881 405 121.481 407.2 122.481C409.2 123.381 411.2 124.681 412.7 126.381C413.5 127.281 414.1 128.281 414.5 129.381C415 130.581 415.2 131.881 415.2 133.081C415.2 134.381 414.9 135.681 414.9 136.981C414.9 138.081 415.9 138.481 416.7 139.181C417.1 139.581 417.1 139.781 417.6 139.981C418.2 140.081 418.5 139.981 419.1 140.081C419.3 140.081 419.8 140.281 420 140.081C420.1 139.981 420 140.381 419.9 140.181C419.8 139.981 419.6 139.781 419.5 139.581C419.3 139.381 419.1 139.081 418.9 138.881C418.5 138.481 418.4 137.381 417.9 136.981C417.4 136.681 416.9 136.381 416.5 136.081C416.1 135.781 415.4 135.981 415.3 135.481C415.2 134.881 415.2 134.181 415.3 133.581C415.5 132.281 415.7 130.981 415.7 129.681C415.7 128.381 415.7 127.081 415.5 125.781C415.2 123.181 414.5 120.681 413.7 118.181C412.9 115.781 411.8 113.381 411.3 110.881C411.1 109.581 411 108.281 411.1 107.081C411.1 106.781 411.2 106.381 411.2 106.081C411.3 105.781 411.4 105.381 411.6 105.181C411.9 104.881 412.3 104.981 412.7 105.181C413 105.281 413.2 105.481 413.5 105.681C413.8 105.881 414 105.981 414.3 106.181C415.4 106.781 416.6 107.281 417.8 107.681C420.2 108.481 422.7 108.981 425.2 109.181C426.5 109.281 427.8 109.381 429.1 109.381C430.4 109.381 431.8 109.481 433.1 109.481C434.4 109.481 435.7 109.381 437 109.181C438.2 108.981 439.5 108.581 440.6 108.081C441.7 107.581 442.7 106.881 443.7 106.181C444.2 105.781 444.6 105.381 445 104.881C445.4 104.381 445.7 103.881 446.1 103.481C446.4 103.081 446.8 102.581 447.4 102.381C447.9 102.181 448.4 102.681 448.6 103.081C448.9 103.581 449 104.081 449.1 104.681C449.2 105.281 449.3 105.981 449.4 106.581C449.8 109.181 449.9 111.881 449.7 114.481C449.6 115.781 449.4 117.081 449.1 118.281C449 118.781 448.9 119.381 448.6 119.881C448.5 120.081 448.3 120.281 448.1 120.381C448 120.481 447.7 120.581 447.6 120.481C447.4 120.381 447.5 120.081 447.5 119.881C447.6 119.581 447.6 119.281 447.7 118.981C447.8 118.381 447.9 117.681 448 117.081C448.1 115.781 448.2 114.481 448.3 113.181C448.3 112.481 448.4 111.881 448.4 111.181C448.4 110.581 448.4 109.981 448.2 109.481C448.1 109.281 447.9 109.081 447.7 108.881C447.5 108.781 447.2 108.781 447 108.781C446.5 108.881 446 109.281 445.6 109.581C445.1 109.981 444.6 110.381 444.2 110.781C444 110.981 443.7 111.181 443.5 111.481C443.3 111.681 443.2 111.881 443.1 112.081C443 112.281 443 112.581 443.1 112.781C443.2 112.981 443.4 113.181 443.6 113.281C443.8 113.481 444 113.681 444.1 113.881C444.2 114.181 444.3 114.481 444.3 114.781C444.3 115.281 444.4 115.981 444.8 116.281C444.9 116.381 445 116.381 445.2 116.481C445.3 116.481 445.4 116.481 445.5 116.581C445.7 116.781 445.6 117.081 445.5 117.281C445.5 117.881 445.8 118.481 446.1 118.981C446.5 119.481 446.9 119.881 447.3 120.281C447.8 120.681 448.2 121.081 448.7 121.481C449.1 121.881 449.5 122.381 449.9 122.781C450.6 123.781 451.2 124.881 451.6 125.981C452.5 128.381 452.7 130.981 452.4 133.481C452.1 135.981 451.5 138.381 450.5 140.681C449.6 142.981 448.5 145.281 447.2 147.481C445.9 149.681 444.5 151.781 443 153.881C441.5 155.981 439.8 157.981 438.2 159.981C436.5 161.981 434.7 163.981 432.9 165.881C431.1 167.881 429.3 169.781 427.6 171.781C426.7 172.781 425.9 173.781 425 174.781C424.2 175.781 423.4 176.781 422.5 177.681C422.3 177.881 422.1 178.081 422 178.281C422 178.381 421.8 178.481 421.9 178.581C422 178.681 422.1 178.481 422.2 178.481C422.6 178.081 423 177.581 423.4 177.081C424.2 176.081 424.9 175.181 425.5 174.081C426.6 171.981 427 169.481 426.7 167.081C426.6 166.481 426.5 165.881 426.3 165.281C426.1 164.681 426 164.081 425.8 163.481C425.8 163.381 425.7 163.081 425.4 163.181C425.3 163.281 425.2 163.381 425.2 163.481C425.1 163.581 425 163.681 424.9 163.781C424.5 164.181 423.8 164.181 423.4 164.581C423.2 164.781 423.1 164.981 422.9 165.181C422.7 165.381 422.6 165.281 422.5 165.081C422.4 164.881 422.4 164.681 422.4 164.481C422.4 164.181 422.3 163.881 422.2 163.581C422.1 163.281 422.1 162.981 422 162.681C422 162.481 422 161.981 421.7 161.981C421.6 161.981 421.5 162.081 421.4 162.181C421.3 162.281 421.2 162.381 421.1 162.481C420.9 162.681 420.7 162.881 420.5 163.081C420.4 163.281 420.2 163.381 420 163.481C419.7 163.581 419.6 163.281 419.5 163.081C419.2 162.581 418.6 162.181 418.2 161.781C418 161.581 417.8 161.481 417.6 161.281C417.5 161.181 417.3 160.981 417.1 161.081C416.9 161.181 417 161.481 417 161.681C417.1 161.981 417.2 162.281 417.2 162.581C417.3 163.181 417.4 163.881 417.5 164.481C417.6 164.781 417.7 164.981 417.7 165.281C417.7 165.381 417.7 165.481 417.7 165.481C417.6 165.581 417.5 165.381 417.5 165.381C417.4 165.281 417.4 165.181 417.3 164.981C417.2 164.881 417.1 164.781 417 164.681C416.8 164.481 416.6 164.281 416.3 164.181C416.1 164.081 415.8 163.881 415.5 163.881C415.2 163.881 415.2 164.181 415.2 164.381C415.2 164.581 415.3 164.781 415.3 164.981C415.3 165.281 414.9 165.081 414.8 164.981C414.5 164.881 414.2 164.681 414 164.581C413.7 164.481 413.4 164.281 413.1 164.181C412.6 163.981 412 163.681 411.5 163.381C411.3 163.281 411.1 163.181 410.9 163.381C410.8 163.581 410.8 163.881 410.9 164.181C411 164.481 411 164.781 411.1 165.081C411.2 165.381 411.4 165.581 411.6 165.881C411.7 165.981 411.7 166.081 411.7 166.181C411.7 166.281 411.5 166.281 411.4 166.281C411.3 166.281 411.1 166.281 411 166.281C410.8 166.281 410.7 166.381 410.5 166.381C409.9 166.581 409.4 166.981 408.8 167.281C408.5 167.481 408.3 167.581 408 167.781C407.8 167.881 407.5 167.981 407.3 168.081C407.1 168.181 406.9 168.381 406.9 168.581C407 168.781 407.3 168.881 407.4 168.981C408 169.281 408.5 169.681 409 170.081C410.1 170.881 411.1 171.681 412.2 172.381C414.3 173.881 416.4 175.381 418.6 176.781C419.1 177.081 419.6 177.481 420.2 177.881C420.5 178.081 420.9 178.381 421.3 178.481C421.4 178.481 421.6 178.581 421.5 178.381C421.5 178.281 421.4 178.281 421.3 178.181C421.2 178.081 421 178.081 420.9 177.981C420.3 177.681 419.8 177.381 419.2 176.981C418.1 176.281 417 175.581 415.9 174.881C414.8 174.181 413.7 173.481 412.6 172.681C410.4 171.181 408.2 169.681 406 168.181C403.8 166.681 401.7 165.181 399.6 163.581C397.5 161.981 395.4 160.381 393.3 158.781C391.2 157.181 389.2 155.481 387.1 153.781C384.2 151.281 381.5 148.581 379.3 145.481C378.7 144.581 378.1 143.681 377.6 142.781C376.4 140.581 375.5 138.281 375 135.781C374.5 133.281 374.4 130.681 374.8 128.181C375.2 125.881 376 123.581 377.2 121.581C378.4 119.581 379.9 117.781 381.7 116.381C383.6 114.881 385.7 113.781 388 113.081C390.5 112.381 393.1 112.181 395.6 112.381C396.3 112.481 396.9 112.581 397.6 112.681C398.1 112.781 398.5 112.881 399 112.981C399 112.981 399.3 113.081 399.2 113.181C399.1 113.181 399 113.181 399 113.181C398.9 113.181 398.9 113.181 398.8 113.181C398.2 113.081 397.6 112.981 396.9 112.881C394.4 112.481 391.7 112.781 389.3 113.481C387 114.081 384.9 115.181 383 116.681C381.2 118.081 379.7 119.881 378.7 121.881C378.1 122.981 377.7 124.081 377.4 125.281C377.2 125.881 377.1 126.481 377 127.081C377 127.181 376.9 127.381 377 127.481C377 127.581 377.1 127.581 377.1 127.481C377.2 127.381 377.2 127.281 377.2 127.181C377.4 126.581 377.5 125.981 377.7 125.381C377.9 124.781 378.2 124.281 378.5 123.681C379.1 122.581 379.8 121.581 380.5 120.681C382 118.881 383.8 117.281 385.8 116.081C387.9 114.781 390.3 113.881 392.7 113.581C394 113.381 395.3 113.381 396.5 113.381C396.6 113.381 396.8 113.381 396.9 113.381C397 113.381 397.2 113.381 397.3 113.481C397.3 113.581 397.1 113.581 397.1 113.581C396.9 113.581 396.8 113.581 396.6 113.581C395.9 113.581 395.3 113.581 394.6 113.681C394 113.781 393.3 113.981 392.7 114.181C392.1 114.381 391.5 114.481 390.9 114.781C390.8 114.781 390.5 114.981 390.6 115.081C390.7 115.081 390.9 115.081 391 115.081C391.6 114.981 392.2 114.781 392.8 114.681C394.1 114.481 395.4 114.381 396.6 114.481C397.9 114.481 399.2 114.581 400.4 114.881C402.8 115.281 405.1 116.081 407.3 117.181C408.4 117.781 409.5 118.381 410.5 119.081C411.5 119.881 412.5 120.681 413.4 121.581C413.8 121.981 414.3 122.481 414.7 122.881C414.7 122.981 414.9 123.081 414.9 123.181C414.9 123.281 414.7 123.081 414.7 123.081C414.5 122.881 414.3 122.681 414.1 122.481C413.3 121.581 412.3 120.881 411.3 120.181C409.3 118.881 407.1 117.781 404.8 117.181C404.2 116.981 403.6 116.881 403 116.681C402.7 116.581 402.4 116.481 402.1 116.481C402 116.481 401.9 116.481 401.9 116.481C401.8 116.481 401.8 116.581 401.9 116.681C402 116.781 402 116.781 402.1 116.781C402.2 116.881 402.4 116.881 402.5 116.981C402.8 117.081 403 117.281 403.3 117.481C403.8 117.781 404.4 118.181 404.9 118.481C405.5 118.781 406 119.181 406.6 119.381C406.9 119.481 407.1 119.681 407.4 119.781C407.5 119.881 407.6 119.881 407.7 119.981L407.8 120.081C407.8 120.181 407.7 120.181 407.6 120.181C407.5 120.181 407.4 120.081 407.3 120.081C407.1 119.981 407 119.981 406.8 119.881C406.2 119.681 405.7 119.381 405.1 119.281C402.6 118.681 400 118.381 397.4 118.581C396.8 118.681 396.1 118.681 395.5 118.781C394.9 118.881 394.2 119.081 393.6 119.181C393.3 119.181 393 119.281 392.7 119.381C392.6 119.381 392.2 119.481 392.3 119.681C392.3 119.781 392.5 119.781 392.6 119.681C392.7 119.681 392.9 119.681 393 119.581C393.3 119.481 393.7 119.481 394 119.381C394.6 119.281 395.3 119.281 395.9 119.281C396.5 119.281 397.2 119.281 397.8 119.281C399.1 119.381 400.3 119.481 401.6 119.781C402.2 119.881 402.8 120.081 403.5 120.281C404.1 120.481 404.7 120.681 405.3 120.881C405.8 121.081 406.4 121.181 406.9 121.481C406.9 121.481 407.1 121.581 407 121.681C407 121.781 406.9 121.781 406.9 121.781C406.7 121.781 406.6 121.681 406.4 121.681C405.2 121.281 404 120.981 402.8 120.681C401.5 120.381 400.3 120.181 399 120.081C396.5 119.881 393.9 120.081 391.6 120.981C389.5 121.681 387.6 122.981 386.1 124.681C385.7 125.081 385.4 125.581 385.1 126.081C384.9 126.381 384.8 126.581 384.6 126.881C384.8 126.681 384.5 127.181 384.6 127.281Z" fill="#FF7D00"/>
<path fill-rule="evenodd" clip-rule="evenodd" d="M416.6 146.281C415.1 145.481 413.6 144.781 412 144.181C408.3 142.881 404.4 142.181 400.5 141.581C398.2 141.181 395.9 140.881 393.9 139.781C391.9 138.681 390.1 136.781 389.9 134.581C389.7 132.281 391.4 129.781 393.7 129.781C391.5 129.481 389.5 131.681 389.4 133.881C389.3 137.381 392.5 139.581 395.4 140.781C398.5 142.081 401.8 142.581 405.1 143.181C408.5 143.881 412 144.681 415 146.581C420.8 150.181 424.5 156.381 426.2 162.881C426.3 163.381 426.4 163.781 426.5 164.281C426.5 164.481 426.6 164.681 426.6 164.981C426.6 164.781 427 164.281 427 163.981C427 163.581 427 163.181 426.9 162.781C426.8 159.581 429.4 157.581 431.5 155.581C434.1 153.181 436.2 150.181 437.8 147.081C437.8 146.981 437.9 146.981 437.9 146.881C439.6 143.381 440.7 139.381 439.4 135.681C441.8 134.081 444.7 133.381 447.6 133.881C447.3 131.581 446.8 128.881 444.7 127.681C442.6 126.381 439.8 127.381 437.8 128.781C433 132.181 430 137.981 424.7 140.481C429 139.981 432.3 136.281 436.5 135.581C432.5 138.481 428.1 140.381 423.4 141.981C421.6 142.581 422.1 144.181 422 145.681C422.1 147.281 422 148.981 421.9 150.581C420.4 148.881 418.6 147.481 416.6 146.281ZM434.2 125.781L434.1 125.681C433.4 125.381 432.6 125.181 431.8 125.281C431.1 125.281 430.3 125.481 429.7 125.781C429.4 125.881 429.2 126.081 429 126.381C428.8 126.681 428.6 126.981 428.4 127.281C428.2 127.581 428.1 127.981 428 128.281C427.9 128.581 427.7 128.981 427.5 129.281C427.3 129.681 427.1 130.081 427 130.481C427 130.581 426.9 130.681 427 130.781C427.3 131.081 433.9 126.081 434 125.981C434.1 125.881 434.2 125.881 434.2 125.781ZM416.5 121.681C416.2 121.481 415.9 121.581 416 121.981C416 122.281 417.1 127.081 417.2 127.081C417.5 126.681 417.8 126.081 418.1 125.281C418.3 124.781 418.6 123.581 418.6 123.181C418.6 123.081 418.5 122.981 418.5 122.881C418.4 122.781 418.4 122.681 418.2 122.581L416.5 121.681ZM432.1 126.981C432 126.981 432.1 126.981 432.1 126.981C431.6 126.781 431.2 126.681 430.8 126.681C430.4 126.681 430 126.781 429.6 126.981C429.4 127.081 429.3 127.181 429.2 127.281C429.1 127.381 429 127.581 428.9 127.781C428.8 127.981 428.7 128.181 428.7 128.281C428.6 128.481 428.5 128.681 428.4 128.881C428.3 129.081 428.2 129.281 428.1 129.581C428.1 129.581 428.1 129.681 428.1 129.781C428.2 129.881 431.9 127.081 432.1 126.981C432 126.981 432 126.981 432.1 126.981Z" fill="white"/>
<path fill-rule="evenodd" clip-rule="evenodd" d="M416.9 122.881C416.7 122.781 416.6 122.881 416.6 123.081C416.6 123.281 417.2 125.981 417.3 125.981C417.5 125.781 417.7 125.381 417.8 124.981C417.9 124.681 418.1 123.981 418.1 123.781C418.1 123.681 418.1 123.681 418 123.581C418 123.581 417.9 123.481 417.8 123.481L416.9 122.881ZM432.3 126.581C432.2 126.581 432.2 126.581 432.3 126.581C431.8 126.381 431.5 126.281 431 126.281C430.6 126.281 430.2 126.381 429.9 126.581C429.8 126.681 429.6 126.781 429.5 126.881C429.4 126.981 429.3 127.181 429.2 127.381C429.1 127.581 429 127.681 429 127.881C428.9 128.081 428.8 128.281 428.7 128.381C428.6 128.581 428.5 128.781 428.4 128.981C428.4 128.981 428.4 129.081 428.4 129.181C428.6 129.281 432.1 126.681 432.3 126.581C432.2 126.581 432.2 126.581 432.3 126.581Z" fill="#151B19"/>
<path fill-rule="evenodd" clip-rule="evenodd" d="M415.8 117.881C415.9 118.081 415.9 118.281 416 118.381C416.2 118.481 416.4 118.481 416.6 118.581L416.7 118.481C416.9 118.281 417 117.981 417.1 117.781C417.3 117.281 417.6 116.781 417.4 116.281C417.3 115.881 418.2 114.381 418.1 113.881C417.9 113.281 417.6 113.181 417.7 112.881C417.8 112.681 418.1 112.781 418.5 112.381C418.6 112.281 418.8 112.081 418.9 111.881C419 111.681 418.9 111.481 418.8 111.281C418.7 111.081 418.5 110.981 418.3 110.781C418.1 110.581 417.8 110.481 417.6 110.281C417.1 109.981 416.7 109.681 416.2 109.481C415.8 109.281 415.3 109.081 414.8 108.981C414.6 108.981 414.4 108.981 414.2 109.181C414 109.281 413.9 109.481 413.9 109.681C413.8 110.181 413.9 110.681 414 111.181C414.1 111.781 414.3 112.281 414.4 112.881C414.7 113.981 414.9 115.081 415.3 116.181C415.4 116.781 415.6 117.381 415.8 117.881Z" fill="white"/>
<path fill-rule="evenodd" clip-rule="evenodd" d="M421.3 138.881C421.1 138.681 416.8 135.781 416.5 135.581C416.4 135.481 416.2 135.481 416.1 135.381C416 135.381 416 135.381 415.9 135.381C415.8 135.381 415.7 135.381 415.7 135.381C415.7 135.381 415.7 135.381 415.7 135.481V135.581C415.7 135.681 415.6 135.781 415.6 135.781C415.5 135.981 415.5 136.081 415.4 136.281C415.3 136.581 415.2 136.881 415.2 137.181C415.2 137.781 415.3 138.381 415.6 138.881C416 139.481 416.6 139.981 417.2 140.181C417.5 140.281 417.8 140.381 418.1 140.481C418.4 140.581 420.3 140.581 420.5 140.481C420.7 140.481 420.8 140.381 421 140.381C421.2 140.381 421.3 140.281 421.5 140.281C421.6 140.281 421.8 140.181 421.9 140.181C422 140.081 422.1 139.981 422.1 139.881C422.1 139.681 422 139.581 422 139.481C421.8 139.381 421.6 139.181 421.3 138.881C421.4 138.981 421.3 138.981 421.3 138.881Z" fill="#1B201C"/>
<path d="M377.8 239.281C377.8 237.481 377.6 235.681 377.3 233.981C374 215.181 359.1 202.781 340 202.781H333.5V190.481H225.1C225.1 191.381 225 192.081 225 192.681C225 230.181 225 267.681 225 305.181C225 315.981 232 323.281 242.8 323.381C267.1 323.481 291.4 323.481 315.7 323.381C326.4 323.281 333.3 315.981 333.5 305.381C333.5 304.081 333.5 302.781 333.5 301.581C338.1 301.381 342.3 301.381 346.5 300.881C362.2 298.981 376.3 284.781 377.4 268.981C378.1 258.981 377.7 249.081 377.8 239.281ZM328.5 198.281C328.5 233.581 328.5 268.981 328.5 304.281C328.5 313.581 323.5 318.481 314.3 318.481C290.9 318.481 267.5 318.481 244.1 318.481C235.1 318.481 230 313.481 230 304.581C230 269.081 230 233.581 229.9 198.081C229.9 195.781 230.6 195.281 232.8 195.281C263.8 195.381 294.8 195.281 325.8 195.281H328.5V198.281ZM333.5 227.181C337 227.381 340.4 227.181 343.7 227.781C349.4 228.881 353 233.681 353.1 240.081C353.2 248.081 353.3 256.181 353.1 264.181C352.9 271.481 347.6 276.481 340.3 276.481H333.6V227.181H333.5ZM372.6 266.981C371.7 282.881 357.8 295.881 341.8 296.181C339.1 296.281 336.5 296.181 333.6 296.181V281.481C335.9 281.481 338.1 281.481 340.4 281.481C350.1 281.381 357.5 274.981 358 265.381C358.5 256.081 358.3 246.781 357.8 237.481C357.3 229.081 350.1 222.681 341.7 222.381C339.1 222.281 336.5 222.381 333.7 222.381V207.881C341.7 207.181 349.5 207.681 356.6 211.981C367.1 218.181 372.4 227.581 372.8 239.581C373 248.681 373.1 257.881 372.6 266.981Z" fill="#333333" stroke="#333333" stroke-width="3.2161"/>
<path d="M328.5 195.381V198.281C328.5 233.581 328.5 268.981 328.5 304.281C328.5 313.581 323.5 318.481 314.3 318.481C290.9 318.481 267.5 318.481 244.1 318.481C235.1 318.481 230 313.481 230 304.581C230 269.081 230 233.581 229.9 198.081C229.9 195.781 230.6 195.281 232.8 195.281C263.8 195.381 294.8 195.281 325.8 195.281H328.5V195.381Z" fill="#E1CDA0"/>
<path d="M333.6 296.281C333.6 291.281 333.6 286.481 333.6 281.581C335.9 281.581 338.1 281.581 340.4 281.581C350.1 281.481 357.5 275.081 358 265.481C358.5 256.181 358.3 246.881 357.8 237.581C357.3 229.181 350.1 222.781 341.7 222.481C339.1 222.381 336.5 222.481 333.7 222.481C333.7 217.581 333.7 212.881 333.7 207.981C341.7 207.281 349.5 207.781 356.6 212.081C367.1 218.281 372.4 227.681 372.8 239.681C373.1 248.881 373.1 258.081 372.6 267.181C371.7 283.081 357.8 296.081 341.8 296.381C339.1 296.281 336.5 296.281 333.6 296.281Z" fill="#E1CDA0"/>
<path fill-rule="evenodd" clip-rule="evenodd" d="M263.6 263.181C264.4 263.781 265.5 263.981 266.4 263.781C265.5 263.881 264.5 263.781 263.6 263.181C263.6 263.181 263.6 263.081 263.6 263.181Z" fill="#1A1D1E"/>
<path fill-rule="evenodd" clip-rule="evenodd" d="M288.5 254.881C287.7 254.281 287.9 251.581 288.7 249.781C289.5 247.981 290.7 246.981 292.6 247.181C294.5 247.381 296.9 248.781 297.1 249.881C297.3 250.981 295.3 251.781 293.3 252.981C291.3 254.181 289.3 255.581 288.5 254.881Z" fill="#1B1918"/>
<path fill-rule="evenodd" clip-rule="evenodd" d="M278.3 249.581C278.6 249.381 278 247.881 277.6 247.081C277.2 246.081 276.9 245.481 276.7 245.181C276.5 244.681 276.2 244.081 275.9 239.881C275.7 237.581 275.6 235.981 276.3 235.381C277 234.781 277.7 235.881 278.6 236.181C279.5 236.481 279.5 236.781 280.4 237.281C285.8 240.481 294.7 241.381 300.4 238.681C301.5 238.181 303.6 236.581 303.7 236.381C304.1 235.281 305.6 235.181 305.5 235.581C305.2 236.581 306.5 238.481 306.3 239.481C305.8 242.481 305.6 245.981 304.3 248.681C304.3 248.681 304.4 248.881 304.5 248.981C304.6 249.081 307.7 253.581 306.3 260.081C305.5 263.881 303.5 267.281 301.5 270.581C297.4 276.881 291.9 282.081 286.4 287.181C283.7 289.681 279.3 294.481 279.3 294.481C279.3 294.481 270.4 287.081 267.8 284.881C261.8 279.681 256 274.181 250.8 268.081C248.4 265.181 246.2 262.581 245.5 258.781C244.9 255.381 245.3 251.781 246.8 248.581C247.4 247.381 248 246.381 248.3 246.081C248.5 245.881 250.3 243.281 252.9 241.681C255.9 239.781 260.1 238.681 264 239.581C270.4 240.981 276.3 247.281 277.2 248.581C277.3 248.781 278.1 249.681 278.3 249.581Z" fill="white"/>
<path fill-rule="evenodd" clip-rule="evenodd" d="M252.9 250.481C253 250.481 253.1 250.381 253.1 250.281C253.2 250.181 253.3 250.081 253.3 249.981C253.4 249.781 253.6 249.581 253.7 249.481C254 249.081 254.4 248.781 254.7 248.481C256.2 247.281 257.9 246.481 259.8 246.181C261.8 245.781 263.8 245.881 265.8 246.281C267.7 246.681 269.6 247.381 271.3 248.281C272.9 249.181 274.3 250.281 275.4 251.781C276 252.581 276.4 253.381 276.7 254.281C277 255.281 277.1 256.281 277 257.281C276.9 258.281 276.6 259.281 276.5 260.381C276.4 261.281 277.2 261.581 277.8 262.281C278.1 262.581 278.1 262.781 278.5 262.981C279 263.181 279.2 263.081 279.7 263.081C279.9 263.081 280.3 263.281 280.4 263.181C280.5 263.081 280.4 263.381 280.3 263.281C280.2 263.081 280.1 262.981 280 262.781C279.9 262.581 279.7 262.381 279.6 262.181C279.3 261.781 279.3 260.881 278.9 260.581C278.5 260.281 278.2 260.081 277.8 259.781C277.5 259.481 276.9 259.681 276.9 259.281C276.8 258.781 276.9 258.281 277.1 257.781C277.4 256.781 277.6 255.781 277.7 254.781C277.8 253.781 277.9 252.681 277.8 251.581C277.8 249.481 277.4 247.481 276.9 245.381C276.4 243.381 275.7 241.481 275.5 239.381C275.4 238.381 275.4 237.281 275.6 236.281C275.6 235.981 275.7 235.781 275.8 235.481C275.9 235.281 276 234.981 276.2 234.781C276.5 234.581 276.8 234.681 277 234.881C277.2 234.981 277.4 235.181 277.6 235.281C277.8 235.381 278 235.581 278.2 235.681C279 236.281 279.9 236.681 280.8 237.181C282.6 237.981 284.6 238.581 286.6 238.881C287.6 239.081 288.7 239.181 289.7 239.381C290.8 239.481 291.8 239.681 292.9 239.681C293.9 239.781 295 239.781 296 239.681C297 239.581 298 239.381 299 239.081C299.9 238.781 300.8 238.281 301.6 237.781C302 237.481 302.4 237.181 302.7 236.881C303 236.581 303.4 236.181 303.7 235.781C304 235.481 304.4 235.081 304.8 234.981C305.2 234.881 305.6 235.281 305.7 235.581C305.9 235.981 306 236.481 306 236.881C306.1 237.381 306.1 237.881 306.1 238.381C306.2 240.481 306.1 242.581 305.7 244.681C305.5 245.681 305.3 246.681 305 247.681C304.9 248.081 304.7 248.581 304.5 248.881C304.4 249.081 304.2 249.181 304.1 249.281C304 249.381 303.8 249.481 303.7 249.381C303.5 249.281 303.6 248.981 303.7 248.881C303.8 248.681 303.9 248.381 303.9 248.181C304 247.681 304.2 247.181 304.3 246.681C304.5 245.681 304.7 244.581 304.8 243.581C304.9 243.081 305 242.581 305 241.981C305.1 241.481 305.1 240.981 305 240.581C304.9 240.381 304.8 240.181 304.7 240.081C304.5 239.981 304.3 239.981 304.2 239.981C303.8 240.081 303.4 240.281 303 240.481C302.6 240.781 302.2 241.081 301.8 241.381C301.6 241.581 301.4 241.681 301.2 241.881C301.1 241.981 300.9 242.181 300.8 242.381C300.7 242.581 300.7 242.781 300.7 242.981C300.8 243.181 300.9 243.281 301.1 243.481C301.3 243.681 301.4 243.781 301.5 243.981C301.6 244.181 301.6 244.481 301.6 244.681C301.6 245.081 301.6 245.581 301.9 245.981C302 246.081 302.1 246.081 302.2 246.081C302.3 246.081 302.4 246.081 302.4 246.181C302.5 246.381 302.4 246.581 302.4 246.781C302.3 247.281 302.5 247.781 302.8 248.181C303.1 248.581 303.4 248.981 303.7 249.281C304 249.681 304.4 249.981 304.7 250.381C305 250.781 305.3 251.081 305.5 251.481C306 252.281 306.4 253.181 306.6 254.181C307.1 256.181 307.1 258.281 306.7 260.281C306.3 262.281 305.6 264.181 304.7 265.881C303.8 267.681 302.8 269.381 301.6 271.081C300.4 272.781 299.2 274.381 297.8 275.881C296.4 277.481 295 278.881 293.5 280.381C292 281.881 290.4 283.281 288.9 284.781C287.3 286.181 285.8 287.681 284.2 289.081C283.4 289.781 282.7 290.581 281.9 291.281C281.2 291.981 280.5 292.781 279.7 293.481C279.5 293.581 279.4 293.781 279.2 293.981C279.2 293.981 279 294.181 279.1 294.181C279.1 294.281 279.3 294.181 279.3 294.081C279.7 293.781 280 293.381 280.3 293.081C281 292.381 281.6 291.681 282.2 290.781C283.2 289.181 283.7 287.181 283.6 285.281C283.6 284.781 283.5 284.281 283.4 283.781C283.3 283.281 283.2 282.781 283.1 282.281C283.1 282.181 283 281.881 282.8 281.981C282.7 281.981 282.7 282.081 282.6 282.181C282.5 282.281 282.5 282.381 282.4 282.381C282 282.681 281.5 282.581 281.1 282.881C280.9 282.981 280.8 283.181 280.7 283.281C280.6 283.381 280.4 283.381 280.4 283.181C280.4 282.981 280.4 282.881 280.4 282.681C280.4 282.381 280.4 282.181 280.3 281.881C280.3 281.581 280.2 281.381 280.2 281.081C280.2 280.881 280.3 280.481 280 280.481C279.9 280.481 279.8 280.581 279.7 280.581C279.6 280.681 279.5 280.781 279.5 280.781C279.3 280.881 279.1 281.081 279 281.181C278.9 281.281 278.7 281.381 278.6 281.481C278.4 281.481 278.3 281.281 278.2 281.081C278 280.681 277.6 280.281 277.2 279.981C277.1 279.881 276.9 279.681 276.8 279.581C276.7 279.481 276.6 279.381 276.4 279.381C276.2 279.381 276.3 279.681 276.3 279.881C276.3 280.181 276.4 280.381 276.4 280.681C276.4 281.181 276.4 281.681 276.5 282.181C276.5 282.381 276.6 282.581 276.6 282.881C276.6 282.981 276.6 283.081 276.5 283.081C276.4 283.081 276.4 282.981 276.3 282.981C276.2 282.881 276.2 282.781 276.2 282.681C276.1 282.581 276.1 282.481 276 282.381C275.9 282.181 275.7 282.081 275.5 281.881C275.3 281.781 275.1 281.581 274.9 281.581C274.7 281.581 274.6 281.781 274.6 281.981C274.6 282.181 274.7 282.281 274.6 282.481C274.5 282.681 274.3 282.581 274.2 282.481C274 282.381 273.8 282.181 273.6 282.081C273.4 281.981 273.2 281.781 272.9 281.681C272.5 281.481 272 281.281 271.7 280.981C271.6 280.881 271.4 280.781 271.3 280.981C271.2 281.181 271.2 281.381 271.2 281.581C271.2 281.781 271.3 282.081 271.3 282.281C271.4 282.481 271.5 282.681 271.6 282.881C271.6 282.981 271.7 283.081 271.7 283.181C271.7 283.281 271.5 283.281 271.4 283.281C271.3 283.281 271.2 283.281 271.1 283.281C271 283.281 270.8 283.281 270.7 283.381C270.2 283.581 269.8 283.781 269.3 283.981C269.1 284.081 268.8 284.181 268.6 284.281C268.4 284.381 268.2 284.381 268 284.481C267.9 284.581 267.6 284.681 267.7 284.881C267.7 285.081 268 285.181 268.1 285.281C268.5 285.581 268.9 285.881 269.3 286.281C270.1 286.981 270.9 287.681 271.7 288.381C273.3 289.781 274.9 291.081 276.5 292.381C276.9 292.681 277.3 292.981 277.7 293.381C278 293.581 278.2 293.781 278.5 293.981C278.6 293.981 278.7 294.081 278.7 293.981C278.7 293.881 278.6 293.881 278.5 293.781C278.4 293.681 278.3 293.681 278.2 293.581C277.8 293.281 277.3 292.981 276.9 292.681C276.1 292.081 275.2 291.381 274.4 290.781C273.6 290.081 272.7 289.481 271.9 288.781C270.2 287.481 268.6 286.081 267 284.781C265.4 283.381 263.8 282.081 262.2 280.681C260.6 279.281 259.1 277.881 257.5 276.381C256 274.981 254.4 273.481 252.9 271.981C250.8 269.781 248.8 267.481 247.3 264.781C246.9 264.081 246.5 263.281 246.2 262.481C245.4 260.681 244.8 258.681 244.6 256.781C244.4 254.781 244.5 252.681 245 250.681C245.5 248.881 246.3 247.081 247.4 245.581C248.5 244.081 249.8 242.781 251.4 241.781C253 240.681 254.8 239.981 256.6 239.581C258.6 239.181 260.7 239.181 262.7 239.581C263.2 239.681 263.7 239.781 264.2 239.981C264.6 240.081 264.9 240.181 265.3 240.281C265.3 240.281 265.5 240.381 265.4 240.481C265.4 240.481 265.3 240.481 265.2 240.481C265.1 240.481 265.1 240.481 265 240.381C264.5 240.281 264 240.081 263.5 239.981C261.5 239.481 259.4 239.481 257.4 239.881C255.5 240.281 253.8 240.981 252.2 241.981C250.7 242.981 249.4 244.281 248.4 245.781C247.9 246.581 247.5 247.481 247.1 248.381C246.9 248.881 246.7 249.281 246.6 249.781C246.6 249.881 246.5 249.981 246.6 250.081C246.6 250.081 246.7 250.181 246.7 250.081C246.8 249.981 246.8 249.881 246.8 249.781C247 249.281 247.1 248.881 247.3 248.381C247.5 247.981 247.8 247.481 248 247.081C248.5 246.281 249.2 245.481 249.8 244.781C251.1 243.481 252.7 242.281 254.4 241.481C256.2 240.581 258.1 240.081 260.1 239.981C261.1 239.881 262.2 239.981 263.2 240.081C263.3 240.081 263.4 240.081 263.5 240.081C263.6 240.081 263.8 240.081 263.8 240.181C263.8 240.281 263.6 240.281 263.6 240.281C263.5 240.281 263.3 240.281 263.2 240.281C262.7 240.281 262.1 240.181 261.6 240.281C261.1 240.281 260.6 240.381 260.1 240.481C259.6 240.581 259.1 240.681 258.6 240.781C258.6 240.781 258.2 240.881 258.4 240.981C258.5 240.981 258.6 240.981 258.7 240.981C259.2 240.881 259.7 240.781 260.1 240.781C261.1 240.681 262.2 240.781 263.2 240.881C264.2 240.981 265.2 241.181 266.2 241.481C268.1 241.981 269.9 242.781 271.5 243.781C272.3 244.281 273.1 244.881 273.9 245.581C274.7 246.281 275.4 246.981 276 247.781C276.3 248.181 276.6 248.481 276.9 248.881C276.9 248.881 277.1 249.081 277 249.181C277 249.281 276.8 249.081 276.8 249.081C276.6 248.881 276.5 248.681 276.3 248.481C275.7 247.681 275 247.081 274.2 246.481C272.7 245.281 271 244.281 269.2 243.581C268.7 243.381 268.2 243.281 267.8 243.081C267.6 242.981 267.3 242.881 267.1 242.881C267 242.881 267 242.881 266.9 242.881C266.8 242.881 266.8 242.981 266.9 242.981C266.9 242.981 267 243.081 267.1 243.081C267.2 243.181 267.3 243.181 267.4 243.281C267.6 243.381 267.8 243.581 268 243.681C268.4 243.981 268.8 244.281 269.2 244.581C269.6 244.881 270.1 245.181 270.5 245.481C270.7 245.581 270.9 245.781 271.1 245.881C271.2 245.981 271.3 245.981 271.4 246.081L271.5 246.181C271.5 246.281 271.4 246.281 271.4 246.181C271.3 246.181 271.2 246.081 271.2 246.081C271.1 245.981 271 245.981 270.8 245.881C270.4 245.681 269.9 245.381 269.5 245.281C267.6 244.581 265.5 244.181 263.4 244.181C262.9 244.181 262.4 244.181 261.8 244.281C261.3 244.281 260.8 244.381 260.3 244.381C260.1 244.381 259.8 244.381 259.6 244.481C259.5 244.481 259.2 244.581 259.2 244.681C259.2 244.781 259.4 244.781 259.4 244.781C259.5 244.781 259.6 244.781 259.7 244.781C260 244.781 260.2 244.681 260.5 244.681C261 244.681 261.5 244.681 262 244.681C262.5 244.681 263 244.781 263.5 244.881C264.5 244.981 265.5 245.281 266.5 245.581C267 245.781 267.5 245.881 268 246.081C268.5 246.281 268.9 246.481 269.4 246.681C269.8 246.881 270.2 246.981 270.6 247.281L270.7 247.381H270.6C270.5 247.381 270.4 247.281 270.2 247.281C269.3 246.881 268.4 246.481 267.4 246.281C266.4 245.981 265.4 245.681 264.4 245.581C262.4 245.281 260.4 245.281 258.4 245.781C256.7 246.181 255 247.081 253.8 248.381C253.5 248.681 253.2 249.081 252.9 249.381C252.7 249.581 252.6 249.781 252.5 249.981C253 249.981 252.8 250.481 252.9 250.481Z" fill="#FF7D00"/>
<path fill-rule="evenodd" clip-rule="evenodd" d="M277.1 267.881C276 267.081 274.8 266.481 273.6 265.881C270.7 264.581 267.7 263.781 264.6 262.981C262.8 262.581 261 262.081 259.4 261.081C257.8 260.081 256.6 258.481 256.5 256.581C256.5 254.781 258 252.881 259.9 252.981C258.1 252.581 256.4 254.181 256.2 255.981C255.9 258.781 258.3 260.781 260.5 261.881C262.9 263.081 265.5 263.781 268 264.481C270.7 265.281 273.4 266.181 275.7 267.881C280.1 271.181 282.6 276.381 283.5 281.681C283.6 282.081 283.6 282.481 283.7 282.881C283.7 283.081 283.7 283.281 283.8 283.381C283.8 283.281 284.1 282.781 284.2 282.681C284.3 282.381 284.2 281.981 284.2 281.681C284.3 279.181 286.5 277.681 288.4 276.281C290.6 274.581 292.5 272.281 294 269.881L294.1 269.781C295.7 267.181 296.8 263.981 296.1 260.981C298.1 259.881 300.5 259.581 302.7 260.081C302.6 258.181 302.4 255.981 300.8 254.881C299.2 253.681 296.9 254.281 295.2 255.281C291.1 257.681 288.3 262.081 283.9 263.681C287.3 263.581 290.2 260.781 293.7 260.581C290.3 262.681 286.6 263.781 282.8 264.781C281.4 265.181 281.6 266.481 281.5 267.681C281.5 268.981 281.2 270.281 281.1 271.581C279.9 270.281 278.6 268.981 277.1 267.881ZM292.6 252.781L292.5 252.681C291.9 252.381 291.4 252.181 290.7 252.181C290.1 252.181 289.5 252.181 289 252.381C288.8 252.481 288.6 252.581 288.4 252.781C288.2 252.981 288 253.181 287.9 253.481C287.8 253.681 287.6 253.981 287.5 254.281C287.4 254.581 287.2 254.781 287.1 255.081C286.9 255.381 286.8 255.681 286.6 255.981C286.6 256.081 286.5 256.181 286.6 256.181C286.8 256.481 292.5 252.881 292.5 252.881C292.4 252.881 292.5 252.881 292.6 252.781ZM278.7 248.281C278.5 248.081 278.3 248.181 278.3 248.481C278.3 248.781 278.8 252.581 278.9 252.581C279.2 252.281 279.5 251.781 279.7 251.181C279.9 250.781 280.2 249.881 280.2 249.581C280.2 249.481 280.1 249.381 280.1 249.381C280.1 249.281 280 249.281 279.9 249.181L278.7 248.281ZM290.8 253.581C290.7 253.581 290.8 253.581 290.8 253.581C290.4 253.381 290.1 253.281 289.8 253.281C289.5 253.281 289.1 253.281 288.9 253.381C288.8 253.481 288.7 253.481 288.6 253.581C288.5 253.681 288.4 253.781 288.3 253.981C288.2 254.081 288.1 254.281 288.1 254.381C288 254.481 287.9 254.681 287.8 254.781C287.7 254.981 287.6 255.081 287.5 255.281V255.381C287.5 255.581 290.6 253.681 290.8 253.581C290.7 253.581 290.7 253.581 290.8 253.581Z" fill="white"/>
<path fill-rule="evenodd" clip-rule="evenodd" d="M278.9 249.181C278.8 249.081 278.6 249.181 278.7 249.281C278.7 249.481 279 251.581 279 251.581C279.1 251.381 279.3 251.181 279.5 250.781C279.6 250.581 279.8 250.081 279.8 249.881C279.8 249.781 279.8 249.781 279.8 249.781L279.7 249.681L278.9 249.181ZM290.9 253.281C290.5 253.081 290.2 252.981 289.9 252.981C289.6 252.981 289.3 252.981 289 253.081C288.9 253.181 288.8 253.181 288.7 253.281C288.6 253.381 288.5 253.481 288.4 253.681C288.3 253.781 288.3 253.981 288.2 254.081C288.1 254.181 288 254.381 288 254.481C287.9 254.681 287.8 254.781 287.7 254.981V255.081C287.8 255.181 290.8 253.281 290.9 253.281Z" fill="#151B19"/>
<path fill-rule="evenodd" clip-rule="evenodd" d="M278.4 245.181C278.4 245.281 278.5 245.481 278.5 245.581C278.6 245.681 278.8 245.681 278.9 245.781C278.9 245.781 279 245.781 279 245.681C279.1 245.481 279.3 245.381 279.4 245.181C279.6 244.881 279.9 244.381 279.7 243.981C279.6 243.681 280.5 242.581 280.4 242.181C280.3 241.681 280 241.581 280.1 241.381C280.2 241.181 280.4 241.281 280.8 241.081C280.9 240.981 281 240.881 281.1 240.681C281.2 240.481 281.1 240.381 281 240.181C280.9 239.981 280.8 239.881 280.7 239.781C280.5 239.581 280.4 239.481 280.2 239.381C279.9 239.081 279.5 238.881 279.1 238.581C278.8 238.381 278.4 238.181 278.1 238.081C277.9 238.081 277.8 238.081 277.6 238.181C277.5 238.281 277.4 238.481 277.3 238.581C277.2 238.981 277.2 239.381 277.3 239.781C277.4 240.281 277.4 240.681 277.5 241.181C277.6 242.081 277.8 242.981 277.9 243.881C278.2 244.281 278.3 244.681 278.4 245.181Z" fill="white"/>
<path fill-rule="evenodd" clip-rule="evenodd" d="M281.4 262.381C281.2 262.181 278 259.581 277.8 259.481C277.7 259.381 277.6 259.381 277.5 259.281C277.4 259.281 277.4 259.281 277.3 259.181C277.3 259.181 277.2 259.181 277.1 259.181C277.1 259.181 277.1 259.181 277.1 259.281V259.381C277.1 259.481 277 259.481 277 259.581C276.9 259.681 276.9 259.781 276.8 259.981C276.7 260.181 276.6 260.481 276.6 260.681C276.5 261.181 276.6 261.681 276.8 262.081C277.1 262.581 277.5 262.981 278 263.281C278.2 263.381 278.5 263.481 278.7 263.581C278.9 263.681 280.5 263.781 280.6 263.781C280.7 263.781 280.9 263.781 281 263.781C281.1 263.781 281.3 263.781 281.4 263.781C281.5 263.781 281.6 263.781 281.7 263.681C281.8 263.681 281.9 263.581 281.9 263.481C281.9 263.381 281.9 263.281 281.8 263.181C281.7 262.681 281.6 262.581 281.4 262.381Z" fill="#1B201C"/>
</svg>
