<svg width="249" height="91" viewBox="0 0 249 91" fill="none" xmlns="http://www.w3.org/2000/svg">
<path d="M24.5 23.053H9.7V27.953H22.5V35.453H9.7V46.853H0V15.053H24.5V23.053Z" fill="#E37C1D"/>
<path d="M60.8 30.9529C60.8 40.8529 54.4 47.5529 44.9 47.5529C35.2 47.5529 28.7 40.9529 28.7 30.9529C28.7 20.8529 35.2 14.3529 45 14.3529C54.4 14.2529 60.8 20.9529 60.8 30.9529ZM38.5 30.7529C38.5 36.4529 40.8 39.6529 44.8 39.6529C48.8 39.6529 50.9 36.4529 50.9 30.4529C50.9 25.1529 48.6 21.9529 44.8 21.9529C40.9 22.0529 38.5 25.3529 38.5 30.7529Z" fill="#E37C1D"/>
<path d="M82.5 29.953L93.8 46.753H82.1L79 41.553C78.1 40.053 77.4 38.553 76.7 37.053C75.9 38.653 75.1 40.253 74.2 41.753L71.2 46.753H59.9L71.5 29.953L61 15.053H72.4L74.8 19.253C75.7 20.753 76.4 22.353 77.2 23.953C77.9 22.553 78.5 21.153 79.3 19.753L81.9 15.053H92.7L82.5 29.953Z" fill="#E37C1D"/>
<path d="M8.2 56.553C12.3 56.553 15.2 58.453 15.2 62.753C15.2 66.953 12.2 68.853 8.4 68.853H4.2V75.753H0V56.553H8.2ZM4.2 65.453H7.9C9.8 65.453 11.2 64.853 11.2 62.753C11.2 60.753 9.8 59.953 7.9 59.953H4.2V65.453Z" fill="black"/>
<path d="M35 75.653H30.8V67.453H23V75.653H18.8V56.553H23V63.753H30.8V56.553H35V75.653Z" fill="black"/>
<path d="M57.7 66.1529C57.7 72.1529 53.9 76.1529 48.3 76.1529C42.6 76.1529 38.8 72.1529 38.8 66.1529C38.8 60.0529 42.6 56.1529 48.3 56.1529C53.9 56.0529 57.7 60.1529 57.7 66.1529ZM43.1 66.0529C43.1 70.1529 45.1 72.6529 48.3 72.6529C51.5 72.6529 53.4 70.1529 53.4 66.0529C53.4 62.0529 51.4 59.5529 48.2 59.5529C45.1 59.5529 43.1 62.0529 43.1 66.0529Z" fill="black"/>
<path d="M74.9 60.153H69.1V75.753H64.9V60.153H59.1V56.553H74.8L74.9 60.153Z" fill="black"/>
<path d="M95.2 66.1529C95.2 72.1529 91.4 76.1529 85.8 76.1529C80.1 76.1529 76.3 72.1529 76.3 66.1529C76.3 60.0529 80.1 56.1529 85.8 56.1529C91.5 56.0529 95.2 60.1529 95.2 66.1529ZM80.6 66.0529C80.6 70.1529 82.6 72.6529 85.8 72.6529C89 72.6529 90.9 70.1529 90.9 66.0529C90.9 62.0529 88.9 59.5529 85.7 59.5529C82.6 59.5529 80.6 62.0529 80.6 66.0529Z" fill="black"/>
<path d="M181.8 25.5529C181.8 27.1529 181.8 28.7529 181.6 30.3529C181.4 31.9529 181.1 33.4529 180.7 34.9529C180.5 35.6529 180.3 36.4529 180.4 37.2529C180.5 37.8529 179.7 40.3529 179.8 39.0529C179.9 37.4529 180.4 35.9529 180.5 34.3529C180.6 32.7529 180.5 31.2529 180.1 29.7529C179.7 28.3529 179 27.1529 178.2 25.9529C176.6 23.7529 174.4 21.9529 172 20.6529C169.4 19.1529 166.6 18.1529 163.7 17.5529C160.7 16.9529 157.6 16.8529 154.6 17.4529C151.8 18.0529 149.2 19.2529 146.9 20.9529C146.3 21.3529 145.8 21.8529 145.3 22.4529C145.1 22.7529 144.8 22.9529 144.6 23.2529C144.5 23.4529 144.4 23.5529 144.3 23.7529C144.2 23.8529 144.1 24.0529 144 24.0529C143.8 23.9529 144.3 23.3529 144.3 23.2529C144.5 22.9529 144.7 22.6529 145 22.3529C145.4 21.7529 145.9 21.2529 146.4 20.7529C148.3 18.8529 150.8 17.5529 153.4 16.8529C156.4 16.0529 159.5 16.0529 162.5 16.5529C164 16.8529 165.6 17.2529 167.1 17.6529C168.5 18.0529 169.9 18.5529 171.3 19.2529C171.5 19.3529 171.7 19.4529 171.8 19.4529C171.9 19.4529 172 19.4529 172 19.4529C172 19.3529 171.9 19.2529 171.8 19.2529C171.3 18.8529 170.6 18.6529 170 18.3529C169.3 18.0529 168.6 17.6529 167.8 17.3529C167.1 17.0529 166.3 16.8529 165.6 16.5529C164.1 16.0529 162.6 15.7529 161.1 15.5529C160.3 15.4529 159.6 15.3529 158.8 15.2529C158 15.1529 157.3 15.1529 156.5 15.1529C156.1 15.1529 155.7 15.2529 155.3 15.2529H154.8C154.7 15.2529 154.5 15.2529 154.5 15.1529C154.5 14.9529 155 14.8529 155 14.8529C155.4 14.7529 155.7 14.7529 156.1 14.7529C156.9 14.7529 157.7 14.5529 158.4 14.5529C159.2 14.4529 160 14.4529 160.8 14.4529C163.9 14.4529 167.1 15.0529 170 16.1529C170.7 16.4529 171.4 16.7529 172 17.1529C172.2 17.2529 172.4 17.3529 172.5 17.4529C172.6 17.5529 172.7 17.5529 172.8 17.6529C172.9 17.6529 173 17.7529 173 17.5529C173 17.4529 172.9 17.4529 172.9 17.3529C172.8 17.2529 172.6 17.1529 172.5 17.0529C172.2 16.8529 171.9 16.6529 171.5 16.4529C170.8 16.0529 170.2 15.5529 169.5 15.1529C168.9 14.6529 168.2 14.2529 167.6 13.7529C167.3 13.5529 167 13.3529 166.6 13.1529C166.4 13.0529 166.3 12.9529 166.1 12.8529C166 12.8529 165.9 12.7529 165.8 12.6529C165.7 12.5529 165.7 12.4529 165.8 12.4529H166.1C166.5 12.5529 166.8 12.6529 167.2 12.8529C167.9 13.0529 168.7 13.3529 169.4 13.6529C172.1 14.7529 174.7 16.2529 176.9 18.0529C178.1 18.9529 179.1 19.9529 180.1 21.1529C180.3 21.4529 180.6 21.7529 180.8 21.9529C180.8 21.9529 181 22.2529 181.1 22.1529C181.2 22.0529 181 21.8529 180.9 21.7529C180.5 21.1529 180 20.5529 179.5 20.0529C178.5 18.8529 177.5 17.7529 176.3 16.6529C175.2 15.6529 173.9 14.7529 172.7 13.9529C170.2 12.3529 167.5 11.1529 164.6 10.4529C163.1 10.0529 161.6 9.75291 160 9.65291C158.5 9.45291 156.9 9.35291 155.3 9.55291C154.6 9.65291 153.9 9.85291 153.1 9.85291C153 9.85291 152.8 9.95291 152.6 9.85291C152.4 9.75291 152.9 9.55291 153 9.55291C153.8 9.35291 154.5 9.25291 155.3 9.05291C156.1 8.85291 156.9 8.75291 157.6 8.65291C158.4 8.55291 159.2 8.65291 160 8.65291H160.6C160.7 8.65291 160.9 8.65291 160.9 8.55291C160.9 8.45291 160.6 8.35291 160.5 8.35291H160C158.4 8.25291 156.9 8.15291 155.3 8.25291C152.3 8.45291 149.3 9.25291 146.6 10.5529C144 11.8529 141.7 13.4529 139.7 15.5529C138.7 16.6529 137.7 17.7529 136.9 19.0529C136.5 19.6529 136.1 20.3529 135.8 21.0529C135.5 21.7529 135.3 22.4529 135 23.1529C135 23.2529 134.9 23.4529 134.8 23.5529C134.7 23.6529 134.7 23.6529 134.6 23.5529C134.6 23.4529 134.6 23.2529 134.7 23.0529C134.9 22.3529 135.1 21.6529 135.4 20.9529C135.9 19.5529 136.5 18.1529 137.4 16.9529C138.9 14.6529 140.9 12.6529 143.2 11.1529C145.6 9.55291 148.3 8.45291 151.1 7.95291C152.9 7.55291 154.9 7.45291 156.8 7.55291H156.9C158.8 7.85291 160.7 8.15291 161.9 8.45291C162.2 8.55291 162.4 8.65291 162.7 8.65291C162.8 8.65291 162.9 8.65291 163 8.75291C163.1 8.75291 163.2 8.85291 163.3 8.75291C167.6 9.95291 177.3 15.5529 181.7 22.4529C181.7 23.4529 181.8 24.5529 181.8 25.5529Z" fill="white"/>
<path d="M225.5 29.753C225.1 28.353 224.5 26.953 223.8 25.753C223.4 25.153 223 24.553 222.5 24.053C222.1 23.553 221.6 23.053 221.2 22.653L221 22.453C220.5 21.953 220 21.353 219.6 20.753C219.2 20.153 218.9 19.453 219 18.653C219 18.353 219.2 18.053 219 17.753C218.9 17.653 218.8 17.653 218.6 17.553C218.5 17.553 218.3 17.453 218.2 17.353C217.7 16.853 217.7 16.053 217.7 15.453C217.7 15.053 217.7 14.753 217.6 14.353C217.5 14.053 217.3 13.753 217.1 13.553C216.9 13.353 216.6 13.153 216.5 12.853C216.4 12.553 216.5 12.253 216.6 11.953C216.7 11.653 216.9 11.453 217.2 11.253C217.5 10.953 217.8 10.753 218.1 10.553C218.7 10.053 219.3 9.65298 220 9.25298C220.5 8.85298 221.2 8.55298 221.8 8.45298C222.1 8.45298 222.4 8.45298 222.6 8.55298C222.9 8.75298 223 8.95298 223.1 9.25298C223.3 9.95298 223.2 10.653 223.1 11.353C223 12.153 222.9 12.953 222.8 13.753C222.6 15.353 222.3 16.953 222 18.453C221.8 19.253 221.7 19.953 221.5 20.753C221.4 21.153 221.3 21.453 221.2 21.853C221.1 22.053 221 22.453 221.2 22.653C221.4 22.753 221.7 22.653 221.9 22.553C222.2 22.453 222.4 22.253 222.6 21.953C223 21.453 223.2 20.753 223.4 20.053C223.8 18.553 224.2 17.053 224.5 15.453C225.1 12.253 225.3 9.05298 225 5.85298C224.9 5.05298 224.9 4.25298 224.8 3.45298C224.7 2.75298 224.6 2.05298 224.3 1.45298C224 0.852982 223.6 0.352982 222.9 0.452982C222.2 0.552982 221.7 1.15298 221.2 1.55298C220.7 2.05298 220.2 2.65298 219.7 3.15298C219.2 3.65298 218.6 4.15298 218 4.55298C216.8 5.35298 215.5 6.05298 214.1 6.55298C212.6 7.05298 211.1 7.35298 209.6 7.55298C208 7.65298 206.4 7.65298 204.8 7.55298C203.2 7.45298 201.6 7.25298 200 7.05298C198.4 6.85298 196.8 6.65298 195.2 6.35298C192.2 5.85298 189.2 5.05298 186.4 3.75298C185 3.15298 183.7 2.35298 182.4 1.55298C182.1 1.35298 181.8 1.15298 181.5 0.952982C181.2 0.752982 180.9 0.452982 180.6 0.252982C180.2 0.0529822 179.7 -0.147018 179.3 0.152982C179 0.352982 178.8 0.852982 178.7 1.15298C178.6 1.55298 178.5 1.95298 178.4 2.35298C178.1 3.85298 178.1 5.45298 178.3 7.05298C178.6 10.153 179.6 13.153 180.4 16.153C180.9 18.253 181.3 20.353 181.6 22.453C181.7 23.453 181.8 24.453 181.8 25.553C181.8 27.153 181.8 28.753 181.6 30.353C181.4 31.953 181.1 33.453 180.7 34.953C180.5 35.653 180.3 36.453 180.4 37.253C180.5 37.853 179.7 40.353 179.8 39.053C179.9 37.453 180.4 35.953 180.5 34.353C180.6 32.753 180.5 31.253 180.1 29.753C179.7 28.353 179 27.153 178.2 25.953C176.6 23.753 174.4 21.953 172 20.653C169.4 19.153 166.6 18.153 163.7 17.553C160.7 16.953 157.6 16.853 154.6 17.453C151.8 18.053 149.2 19.253 146.9 20.953C146.3 21.353 145.8 21.853 145.3 22.453C145.1 22.753 144.8 22.953 144.6 23.253C144.5 23.453 144.4 23.553 144.3 23.753C144.2 23.853 144.1 24.053 144 24.053C143.8 23.953 144.3 23.353 144.3 23.253C144.5 22.953 144.7 22.653 145 22.353C145.4 21.753 145.9 21.253 146.4 20.753C148.3 18.853 150.8 17.553 153.4 16.853C156.4 16.053 159.5 16.053 162.5 16.553C164 16.853 165.6 17.253 167.1 17.653C168.5 18.053 169.9 18.553 171.3 19.253C171.5 19.353 171.7 19.453 171.8 19.453C171.9 19.453 172 19.453 172 19.453C172 19.353 171.9 19.253 171.8 19.253C171.3 18.853 170.6 18.653 170 18.353C169.3 18.053 168.6 17.653 167.8 17.353C167.1 17.053 166.3 16.853 165.6 16.553C164.1 16.053 162.6 15.753 161.1 15.553C160.3 15.453 159.6 15.353 158.8 15.253C158 15.153 157.3 15.153 156.5 15.153C156.1 15.153 155.7 15.253 155.3 15.253H154.8C154.7 15.253 154.5 15.253 154.5 15.153C154.5 14.953 155 14.853 155 14.853C155.4 14.753 155.7 14.753 156.1 14.753C156.9 14.753 157.7 14.553 158.4 14.553C159.2 14.453 160 14.453 160.8 14.453C163.9 14.453 167.1 15.053 170 16.153C170.7 16.453 171.4 16.753 172 17.153C172.2 17.253 172.4 17.353 172.5 17.453C172.6 17.553 172.7 17.553 172.8 17.653C172.9 17.653 173 17.753 173 17.553C173 17.453 172.9 17.453 172.9 17.353C172.8 17.253 172.6 17.153 172.5 17.053C172.2 16.853 171.9 16.653 171.5 16.453C170.8 16.053 170.2 15.553 169.5 15.153C168.9 14.653 168.2 14.253 167.6 13.753C167.3 13.553 167 13.353 166.6 13.153C166.4 13.053 166.3 12.953 166.1 12.853C166 12.853 165.9 12.753 165.8 12.653C165.7 12.553 165.7 12.453 165.8 12.453H166.1C166.5 12.553 166.8 12.653 167.2 12.853C167.9 13.053 168.7 13.353 169.4 13.653C172.1 14.753 174.7 16.253 176.9 18.053C178.1 18.953 179.1 19.953 180.1 21.153C180.3 21.453 180.6 21.753 180.8 21.953C180.8 21.953 181 22.253 181.1 22.153C181.2 22.053 181 21.853 180.9 21.753C180.5 21.153 180 20.553 179.5 20.053C178.5 18.853 177.5 17.753 176.3 16.653C175.2 15.653 173.9 14.753 172.7 13.953C170.2 12.353 167.5 11.153 164.6 10.453C163.1 10.053 161.6 9.75298 160 9.65298C158.5 9.45298 156.9 9.35298 155.3 9.55298C154.6 9.65298 153.9 9.85298 153.1 9.85298C153 9.85298 152.8 9.95298 152.6 9.85298C152.4 9.75298 152.9 9.55298 153 9.55298C153.8 9.35298 154.5 9.25298 155.3 9.05298C156.1 8.85298 156.9 8.75298 157.6 8.65298C158.4 8.55298 159.2 8.65298 160 8.65298H160.6C160.7 8.65298 160.9 8.65298 160.9 8.55298C160.9 8.45298 160.6 8.35298 160.5 8.35298H160C158.4 8.25298 156.9 8.15298 155.3 8.25298C152.3 8.45298 149.3 9.25298 146.6 10.553C144 11.853 141.7 13.453 139.7 15.553C138.7 16.653 137.7 17.753 136.9 19.053C136.5 19.653 136.1 20.353 135.8 21.053C135.5 21.753 135.3 22.453 135 23.153C135 23.253 134.9 23.453 134.8 23.553C134.7 23.653 134.7 23.653 134.6 23.553C134.6 23.453 134.6 23.253 134.7 23.053C134.9 22.353 135.1 21.653 135.4 20.953C135.9 19.553 136.5 18.153 137.4 16.953C138.9 14.653 140.9 12.653 143.2 11.153C145.6 9.55298 148.3 8.45298 151.1 7.95298C152.9 7.55298 154.9 7.45298 156.8 7.55298H156.9C158.1 7.65298 159.3 7.75298 160.4 8.05298C160.9 8.15298 161.4 8.35298 161.8 8.45298C162.1 8.55298 162.3 8.65298 162.6 8.65298C162.7 8.65298 162.8 8.65298 162.9 8.75298C163 8.75298 163.1 8.85298 163.2 8.75298C163.4 8.65298 163 8.55298 163 8.55298C162.5 8.35298 161.9 8.15298 161.4 8.05298C160.6 7.85298 159.8 7.65298 159.1 7.55298C156.5 7.05298 154 6.95298 151.4 7.25298C151.2 7.25298 151 7.35298 150.7 7.35298C150.4 7.35298 150.1 7.45298 149.8 7.55298C147 8.15298 144.3 9.25298 141.9 10.853C140.3 11.953 138.8 13.253 137.6 14.653C137.5 14.753 137.4 14.853 137.3 14.953C136.8 15.453 136.4 16.053 136 16.653C134.3 18.953 133.1 21.653 132.3 24.453C131.5 27.453 131.4 30.653 131.7 33.653C132.1 36.653 132.9 39.553 134.1 42.353C134.6 43.553 135.2 44.653 135.8 45.753C138.1 49.753 141.1 53.353 144.4 56.653C146.7 58.953 149 61.153 151.3 63.353C153.6 65.553 156 67.653 158.4 69.853C163.4 74.253 168.7 78.753 173.7 83.053C174.5 83.753 178.6 86.753 180.6 88.453C181.4 89.153 182.3 89.953 183.3 90.353C184.2 90.753 184.4 90.453 184.9 89.853C185.6 89.053 186.5 88.353 187.3 87.553C188.1 86.753 188.9 85.953 189.6 85.053C192.5 81.853 195.6 78.953 198.7 76.053C201.1 73.853 203.4 71.653 205.7 69.453C207.9 67.253 210.1 64.953 212.2 62.653C214.2 60.353 216.2 57.953 217.9 55.353C219.7 52.853 221.2 50.253 222.6 47.453C224 44.753 225 41.853 225.6 38.853C226.3 35.853 226.3 32.753 225.5 29.753ZM190.3 80.553C190.2 81.553 189.8 82.553 189.4 83.553C188.4 85.553 186.8 87.253 185 88.553C184.4 89.053 183.9 89.553 183.2 88.953C183.2 88.753 182.1 88.153 181.9 87.953C181.4 87.553 180.9 87.253 180.4 86.853C179.5 86.153 178.6 85.553 177.8 84.853C176.1 83.553 174.5 82.053 172.9 80.653C171.9 79.853 170.9 79.053 169.9 78.153C169 77.353 167.9 76.753 167.1 75.853H167.2C168.8 75.153 170.3 74.453 172 74.053C172.6 73.953 172.8 73.953 172.5 73.353C172.1 72.653 171.9 71.853 172 71.053C172.1 69.753 173.5 71.053 174 71.353C174.6 71.753 175.3 72.153 175.9 72.453C176.3 72.653 177.5 73.653 177.3 72.553C177.3 72.353 177.2 72.153 177.3 71.953C177.5 70.653 179.6 73.153 179.8 73.553C180 73.953 180.1 73.853 180.2 73.553C180.3 73.153 180.1 72.353 180 71.953C179.9 70.953 179.8 69.853 179.7 68.753V68.453C180 67.853 182.3 70.653 182.6 71.053C182.8 71.253 182.9 71.553 183.3 71.553C183.5 71.553 183.7 71.353 183.8 71.253C184.2 70.953 184.6 70.553 185 70.153C185.4 69.853 185.7 69.853 185.7 70.353C185.8 71.153 185.9 71.953 185.9 72.653C185.9 72.953 185.8 73.653 186 73.953C186.4 74.353 187.1 73.253 187.6 73.053C188.3 72.753 188.9 72.753 189.4 72.153C189.5 72.053 189.6 71.853 189.7 71.853C190 71.753 190.1 72.053 190.1 72.253C190.3 73.153 190.1 74.153 190.2 75.153C190.3 77.053 190.5 78.753 190.3 80.553Z" fill="#E27C1D"/>
<path d="M223.1 11.3529C223 12.1529 222.9 12.9529 222.8 13.7529C222.6 15.3529 222.3 16.9529 222 18.4529C221.8 19.2529 221.7 19.9529 221.5 20.7529C221.4 21.1529 221.3 21.4529 221.2 21.8529C221.1 22.0529 221 22.4529 221.2 22.6529L221 22.4529C220.5 21.9529 220 21.3529 219.6 20.7529C219.2 20.1529 218.9 19.4529 219 18.6529C219 18.3529 219.2 18.0529 219 17.7529C218.9 17.6529 218.8 17.6529 218.6 17.5529C218.5 17.5529 218.3 17.4529 218.2 17.3529C217.7 16.8529 217.7 16.0529 217.7 15.4529C217.7 15.0529 217.7 14.7529 217.6 14.3529C217.5 14.0529 217.3 13.7529 217.1 13.5529C216.9 13.3529 216.6 13.1529 216.5 12.8529C216.4 12.5529 216.5 12.2529 216.6 11.9529C216.7 11.6529 216.9 11.4529 217.2 11.2529C217.5 10.9529 217.8 10.7529 218.1 10.5529C218.7 10.0529 219.3 9.65288 220 9.25288C220.5 8.85288 221.2 8.55288 221.8 8.45288C222.1 8.45288 222.4 8.45288 222.6 8.55288C222.9 8.75288 223 8.95288 223.1 9.25288C223.3 9.95288 223.2 10.6529 223.1 11.3529Z" fill="white"/>
<path d="M190.3 80.5531C190.2 81.5531 189.8 82.5531 189.4 83.5531C188.4 85.5531 186.8 87.2531 185 88.5531C184.4 89.0531 183.9 89.5531 183.2 88.9531C183.2 88.7531 182.1 88.1531 181.9 87.9531C181.4 87.5531 180.9 87.2531 180.4 86.8531C179.5 86.1531 178.6 85.5531 177.8 84.8531C176.1 83.5531 174.5 82.0531 172.9 80.6531C171.9 79.8531 170.9 79.0531 169.9 78.1531C169 77.3531 167.9 76.7531 167.1 75.8531H167.2C168.8 75.1531 170.3 74.4531 172 74.0531C172.6 73.9531 172.8 73.9531 172.5 73.3531C172.1 72.6531 171.9 71.8531 172 71.0531C172.1 69.7531 173.5 71.0531 174 71.3531C174.6 71.7531 175.3 72.1531 175.9 72.4531C176.3 72.6531 177.5 73.6531 177.3 72.5531C177.3 72.3531 177.2 72.1531 177.3 71.9531C177.5 70.6531 179.6 73.1531 179.8 73.5531C180 73.9531 180.1 73.8531 180.2 73.5531C180.3 73.1531 180.1 72.3531 180 71.9531C179.9 70.9531 179.8 69.8531 179.7 68.7531C179.7 68.6531 179.7 68.5531 179.7 68.4531C180 67.8531 182.3 70.6531 182.6 71.0531C182.8 71.2531 182.9 71.5531 183.3 71.5531C183.5 71.5531 183.7 71.3531 183.8 71.2531C184.2 70.9531 184.6 70.5531 185 70.1531C185.4 69.8531 185.7 69.8531 185.7 70.3531C185.8 71.1531 185.9 71.9531 185.9 72.6531C185.9 72.9531 185.8 73.6531 186 73.9531C186.4 74.3531 187.1 73.2531 187.6 73.0531C188.3 72.7531 188.9 72.7531 189.4 72.1531C189.5 72.0531 189.6 71.8531 189.7 71.8531C190 71.7531 190.1 72.0531 190.1 72.2531C190.3 73.1531 190.1 74.1531 190.2 75.1531C190.3 77.0531 190.5 78.7531 190.3 80.5531Z" fill="white"/>
<path d="M180.6 50.253C178.9 49.053 177.1 48.053 175.3 47.153C170.9 45.153 166.3 43.953 161.6 42.753C158.9 42.053 156.1 41.453 153.7 39.953C151.3 38.453 149.4 35.953 149.4 33.153C149.3 30.353 151.7 27.553 154.5 27.753C151.8 27.153 149.2 29.553 148.9 32.353C148.5 36.553 152 39.653 155.4 41.353C159 43.253 163 44.153 166.9 45.253C171 46.453 175.1 47.853 178.6 50.453C185.2 55.353 189.1 63.353 190.4 71.353C190.5 71.953 190.6 72.553 190.6 73.153C190.6 73.453 190.7 73.653 190.7 73.953C190.7 73.753 191.2 73.053 191.3 72.853C191.4 72.353 191.3 71.853 191.4 71.353C191.6 67.453 195 65.253 197.7 63.153C201.1 60.553 203.9 57.153 206.2 53.453C206.2 53.353 206.3 53.353 206.3 53.253C208.7 49.253 210.4 44.453 209.3 39.853C212.3 38.153 216 37.653 219.4 38.453C219.3 35.553 218.9 32.253 216.6 30.553C214.2 28.753 210.7 29.653 208.1 31.153C201.9 34.753 197.6 41.453 190.9 43.953C196.1 43.853 200.5 39.653 205.7 39.353C200.5 42.453 195 44.253 189.1 45.753C186.9 46.253 187.3 48.353 187.1 50.153C187.1 52.153 186.7 54.153 186.5 56.053C184.9 53.753 182.9 51.853 180.6 50.253ZM204.1 27.353C204.1 27.253 204 27.253 203.9 27.253C203.8 27.253 203.6 27.153 203.4 27.053C203.2 26.953 203 26.953 202.9 26.853C202.6 26.753 202.2 26.653 201.9 26.553C201.2 26.453 200.4 26.353 199.7 26.553C199 26.653 198.3 26.953 197.8 27.453C196.8 28.353 196.3 29.753 195.7 30.853C195.6 31.053 195.4 31.253 195.3 31.453C195.2 31.653 195 31.953 195 32.153C195 32.253 194.9 32.453 195 32.453C195.3 32.853 203.9 27.453 204.1 27.353C204 27.353 203.9 27.353 204.1 27.353ZM183.1 20.453C182.7 20.153 182.4 20.353 182.4 20.753C182.4 21.153 183.2 27.053 183.3 27.053C183.4 27.053 183.9 26.253 183.9 26.153C184.1 25.853 184.3 25.453 184.5 25.153C184.8 24.553 185 23.953 185.2 23.353C185.4 22.853 185.5 22.353 185.1 21.853C185.1 21.753 185 21.753 185 21.653C184.9 21.553 184.9 21.553 184.8 21.553C184.2 21.153 183.7 20.853 183.1 20.453Z" fill="white"/>
<path d="M183.4 21.853C183.2 21.753 183 21.753 183 22.053C183 22.253 183.5 25.553 183.5 25.553C183.7 25.253 184 24.853 184.2 24.353C184.5 23.653 185 23.053 184.2 22.453C184.1 22.453 183.7 22.053 183.4 21.853ZM201.6 28.053C201.6 27.953 201.6 27.953 201.6 28.053C201 27.753 200.6 27.653 200.1 27.553C199.2 27.353 198.2 27.853 197.7 28.653C197.4 29.253 197 29.853 196.7 30.453C196.7 30.453 196.6 30.553 196.7 30.653C196.9 30.853 201.4 27.953 201.6 28.053Z" fill="#151B19"/>
<path d="M182.7 15.7529C182.8 15.9529 182.8 16.1529 182.9 16.4529C183.1 16.5529 183.3 16.6529 183.6 16.7529C183.6 16.7529 183.7 16.6529 183.8 16.6529C184 16.3529 184.2 16.1529 184.4 15.8529C184.7 15.3529 185.1 14.6529 184.9 14.0529C184.8 13.5529 186.1 11.8529 186 11.2529C185.8 10.5529 185.4 10.3529 185.6 10.0529C185.7 9.75288 186.1 9.95288 186.6 9.55288C186.7 9.45288 187 9.25288 187.1 8.95288C187.2 8.65288 187.1 8.45288 187 8.15288C186.9 7.95288 186.7 7.75288 186.5 7.55288C186.3 7.35288 186 7.15288 185.7 6.85288C185.2 6.45288 184.6 6.05288 184.1 5.65288C183.6 5.35288 183.1 5.05288 182.5 4.95288C182.3 4.95288 182 4.95288 181.8 5.05288C181.6 5.15288 181.4 5.45288 181.4 5.65288C181.2 6.25288 181.3 6.95288 181.4 7.55288C181.5 8.25288 181.6 8.95288 181.7 9.65288C181.9 11.0529 182.1 12.4529 182.4 13.7529C182.3 14.3529 182.5 15.0529 182.7 15.7529Z" fill="white"/>
<path d="M187.1 41.853C187 41.753 186.9 41.653 186.8 41.553C186.4 41.253 186.1 40.953 185.7 40.653C184.3 39.653 183 38.453 181.7 37.353C181.5 37.253 181.3 37.053 181.1 36.953C180.4 36.653 180.3 36.853 180 37.453C179.8 37.853 179.7 38.553 179.7 38.953C179.7 39.753 179.7 40.453 180.1 41.153C180.6 42.153 181.6 42.853 182.7 43.153C183.3 43.353 183.9 43.353 184.5 43.453C185.2 43.553 185.9 43.553 186.5 43.453C186.7 43.453 186.9 43.353 187.1 43.353C187.3 43.353 187.9 43.153 187.9 42.953C187.8 42.553 187.5 42.153 187.1 41.853Z" fill="#1B201C"/>
<path d="M241.5 85.3529H197.7C196.6 85.3529 195.7 84.4529 195.7 83.3529C195.7 82.2529 196.6 81.3529 197.7 81.3529H241.5C243.2 81.3529 244.5 80.0529 244.5 78.3529V15.7529C244.5 14.0529 243.2 12.7529 241.5 12.7529H229.9C228.8 12.7529 227.9 11.8529 227.9 10.7529C227.9 9.65293 228.8 8.75293 229.9 8.75293H241.5C245.4 8.75293 248.5 11.8529 248.5 15.7529V78.3529C248.5 82.2529 245.4 85.3529 241.5 85.3529Z" fill="black"/>
<path d="M165.6 85.3529H117C113.1 85.3529 110 82.2529 110 78.3529V15.7529C110 11.8529 113.1 8.75293 117 8.75293H134.7C135.8 8.75293 136.7 9.65293 136.7 10.7529C136.7 11.8529 135.8 12.7529 134.7 12.7529H117C115.3 12.7529 114 14.0529 114 15.7529V78.3529C114 80.0529 115.3 81.3529 117 81.3529H165.7C166.8 81.3529 167.7 82.2529 167.7 83.3529C167.7 84.4529 166.7 85.3529 165.6 85.3529Z" fill="black"/>
<path d="M237.2 23.2531C237.2 24.3531 236.3 25.2531 235.2 25.2531H230.2C229.1 25.2531 228.2 24.3531 228.2 23.2531V20.9531C228.2 19.8531 229.1 18.9531 230.2 18.9531H235.2C236.3 18.9531 237.2 19.8531 237.2 20.9531V23.2531Z" fill="black"/>
<path d="M132.9 10.753H117.5L118.9 6.15303C119.3 4.85303 120.5 3.85303 121.9 3.85303H128.4C129.8 3.85303 131 4.75303 131.4 6.15303L132.9 10.753Z" fill="black"/>
</svg>
