<svg width="41" height="41" viewBox="0 0 41 41" fill="none" xmlns="http://www.w3.org/2000/svg">
<path d="M20.4 40.7C16.6 40.7 12.9 39.7 9.7 37.7L2.9 39.8C2.6 39.9 2.2 39.8 1.9 39.6C1.6 39.3 1.5 39 1.6 38.6C2.4 35.8 3.2 32.6 3.4 31.7C1.2 28.3 0 24.4 0 20.4C0 9.1 9.1 0 20.4 0C31.7 0 40.8 9.1 40.8 20.4C40.8 31.7 31.6 40.7 20.4 40.7ZM9.8 35.6C10 35.6 10.2 35.7 10.3 35.8C13.3 37.7 16.7 38.8 20.3 38.8C30.4 38.8 38.7 30.6 38.7 20.4C38.7 10.2 30.5 2 20.4 2C10.2 2 2 10.2 2 20.4C2 24.1 3.1 27.7 5.2 30.8C5.2 30.8 5.2 30.8 5.2 30.9C5.2 31 5.3 31.1 5.3 31.2C5.3 31.3 5.3 31.4 5.3 31.5C5.3 32.2 5 33.7 4 37.4L9.5 35.7C9.6 35.6 9.7 35.6 9.8 35.6Z" fill="#370475"/>
<path d="M27.1 19.4C27.1 16.6 24.5 14.1 21.3 13.8C21.2 13.8 21.2 13.8 21.1 13.8C20.9 13.8 20.8 13.8 20.6 13.8C20 13.8 19.8 14.2 19.7 14.5C19.7 14.7 19.7 15 19.8 15.1C20 15.4 20.4 15.4 20.7 15.4C20.8 15.4 20.9 15.4 20.9 15.4C23.8 16 24.7 16.9 25.2 19.5C25.2 19.6 25.2 19.6 25.2 19.7C25.2 20 25.3 20.7 26 20.7C26.1 20.7 26.1 20.7 26.2 20.7C26.9 20.6 26.9 20 26.9 19.7C27.1 19.6 27.1 19.5 27.1 19.4C27.1 19.5 27.1 19.4 27.1 19.4Z" fill="#370475"/>
<path d="M20.4 12.8C20.5 12.8 20.6 12.8 20.6 12.8C25.3 13.4 27.5 15.4 28.1 19.8C28.1 19.9 28.1 20 28.1 20.1C28.1 20.4 28.1 21.2 29 21.2C29.3 21.2 29.5 21.1 29.6 21C29.9 20.7 29.8 20.4 29.8 20.1C29.8 20 29.8 20 29.8 19.9C29.8 15.4 25.6 11.4 20.8 11.3C20.8 11.3 20.8 11.3 20.7 11.3C20.7 11.3 20.7 11.3 20.6 11.3C20.6 11.3 20.5 11.3 20.4 11.3C20.3 11.3 20.2 11.3 20.2 11.3C19.4 11.3 19.3 11.8 19.3 12.1C19.4 12.7 20.1 12.8 20.4 12.8Z" fill="#370475"/>
<path d="M28 25.5C27.9 25.4 27.8 25.4 27.7 25.3C27.2 24.9 26.6 24.6 26.1 24.2C26 24.1 25.9 24.1 25.8 24C25.1 23.6 24.5 23.4 23.9 23.4C23.1 23.4 22.5 23.8 21.9 24.6C21.7 25 21.4 25.1 21 25.1C20.8 25.1 20.5 25 20.3 24.9C18.1 24 16.5 22.6 15.6 20.8C15.2 19.9 15.3 19.3 16 18.8C16.4 18.5 17.2 18 17.1 17C17 15.9 14.4 12.6 13.3 12.3C12.8 12.1 12.3 12.2 11.9 12.3C10.6 12.7 9.8 13.4 9.3 14.3C8.9 15.2 8.9 16.2 9.4 17.3C10.8 20.4 12.8 23.1 15.2 25.3C17.6 27.5 20.5 29.2 23.9 30.5C24.2 30.6 24.5 30.7 24.8 30.7C24.9 30.7 24.9 30.7 25 30.7H25.1C26.7 30.7 28.6 29.3 29.1 27.7C29.7 26.7 28.8 26 28 25.5Z" fill="#370475"/>
<path d="M21.2 16.3C20.9 16.3 20.4 16.3 20.2 16.9C20.1 17.2 20.1 17.4 20.2 17.5C20.4 17.8 20.7 17.8 21 17.9C22.1 18 22.6 18.6 22.7 19.6C22.8 20.1 23.1 20.4 23.5 20.4H23.6C24.1 20.3 24.4 20 24.3 19.3C24.3 18.6 23.9 17.8 23.2 17.2C22.7 16.6 21.9 16.3 21.2 16.3Z" fill="#370475"/>
</svg>
