<svg width="48" height="48" viewBox="0 0 48 48" fill="none" xmlns="http://www.w3.org/2000/svg">
<path d="M31.3946 0C17.9027 0 30.0973 0 16.7351 0C3.37297 0 0 3.24324 0 16.6054C0 24.1297 0 17.9027 0 31.2649C0 44.7568 3.24324 48 16.6054 48C29.9676 48 17.9027 48 31.2649 48C44.627 48 48 44.7568 48 31.3946C48 17.9027 48 30.0973 48 16.7351C48 3.37297 44.7568 0 31.3946 0ZM38.7892 34.2486H35.2865C33.9892 34.2486 33.6 33.2108 31.1351 30.8757C29.0595 28.9297 28.1514 28.6703 27.6324 28.6703C26.9838 28.6703 26.7243 28.9297 26.7243 29.8378V32.9514C26.7243 33.8595 26.4649 34.2486 24.2595 34.2486C20.4973 34.2486 16.4757 32.0432 13.6216 27.8919C9.34054 21.7946 8.04324 17.2541 8.04324 16.3459C8.04324 15.827 8.3027 15.3081 9.21081 15.3081H12.7135C13.6216 15.3081 13.8811 15.6973 14.2703 16.6054C15.9568 21.5351 18.8108 25.9459 20.1081 25.9459C20.4973 25.9459 20.7568 25.6865 20.7568 24.6486V19.4595C20.627 17.1243 19.3297 16.8649 19.3297 16.0865C19.3297 15.6973 19.7189 15.3081 20.2378 15.3081H25.6865C26.4649 15.3081 26.7243 15.6973 26.7243 16.6054V23.4811C26.7243 24.2595 26.9838 24.5189 27.2432 24.5189C27.6324 24.5189 28.0216 24.2595 28.9297 23.4811C31.3946 20.627 33.2108 16.3459 33.2108 16.3459C33.4703 15.827 33.8595 15.3081 34.7676 15.3081H38.2703C39.3081 15.3081 39.5676 15.827 39.3081 16.6054C38.9189 18.6811 34.6378 24.6486 34.6378 24.6486C34.2486 25.2973 34.1189 25.5568 34.6378 26.2054C35.027 26.7243 36.1946 27.7622 37.1027 28.6703C38.6595 30.3568 39.6973 31.7838 40.0865 32.8216C40.2162 33.7297 39.6973 34.2486 38.7892 34.2486Z" fill="#3E6E96"/>
</svg>
